<svg width="80" height="19" viewBox="0 0 80 19" fill="none" xmlns="http://www.w3.org/2000/svg">
<path fill-rule="evenodd" clip-rule="evenodd" d="M0 0H80V19H0V0ZM60.0469 10.1221C60.0469 9.31934 60.21 8.61938 60.5366 8.02197C60.8633 7.41553 61.3159 6.94873 61.8945 6.62207C62.4731 6.28613 63.1357 6.11816 63.8828 6.11816C64.8438 6.11816 65.6372 6.36084 66.2627 6.84619C66.8975 7.32202 67.3218 7.99414 67.5366 8.86206H65.4229C65.3105 8.52612 65.1191 8.26465 64.8486 8.07812C64.5874 7.88208 64.2607 7.78418 63.8687 7.78418C63.3086 7.78418 62.8652 7.9895 62.5386 8.40015C62.2119 8.80151 62.0488 9.37549 62.0488 10.1221C62.0488 10.8594 62.2119 11.4333 62.5386 11.844C62.8652 12.2454 63.3086 12.446 63.8687 12.446C64.6621 12.446 65.1802 12.0913 65.4229 11.3821H67.5366C67.3218 12.2222 66.8975 12.8894 66.2627 13.384C65.6279 13.8787 64.8345 14.126 63.8828 14.126C63.1357 14.126 62.4731 13.9626 61.8945 13.636C61.3159 13.3 60.8633 12.8335 60.5366 12.2361C60.21 11.6294 60.0469 10.9248 60.0469 10.1221ZM65.3105 4.22803L62.0908 5.698V4.2981L65.3105 2.63208V4.22803ZM54.1816 13.79C54.2661 13.8274 54.3521 13.8618 54.4399 13.8931C54.5151 13.9197 54.5918 13.9441 54.6694 13.9661C54.8218 14.0093 54.979 14.0439 55.1416 14.0696C55.3799 14.1072 55.6294 14.126 55.8896 14.126C56.0171 14.126 56.1411 14.1218 56.2622 14.1133C56.4424 14.1008 56.6147 14.0789 56.7798 14.0476C57.0386 13.9988 57.2783 13.9268 57.4995 13.832C57.9663 13.6267 58.3208 13.3467 58.5635 12.9919C58.8159 12.6372 58.9419 12.2358 58.9419 11.7878C58.9326 11.2747 58.7925 10.864 58.5215 10.5559C58.2603 10.2385 57.9478 10.0054 57.5835 9.85596C57.2197 9.70654 56.7578 9.56201 56.1978 9.42188C55.647 9.28198 55.2412 9.14648 54.9795 9.01587C54.7183 8.87598 54.5879 8.67529 54.5879 8.41382C54.5879 8.18066 54.6812 7.99854 54.8677 7.86792C55.0635 7.7373 55.3389 7.67188 55.6938 7.67188C55.7563 7.67188 55.8169 7.67456 55.875 7.67944C55.9106 7.68262 55.9458 7.68652 55.98 7.69141C56.0752 7.70508 56.1646 7.72632 56.2476 7.75464C56.2808 7.76611 56.313 7.77856 56.3442 7.79248C56.3809 7.80859 56.4155 7.82617 56.4492 7.84521C56.5044 7.87671 56.5557 7.91211 56.6035 7.9519C56.6982 8.02393 56.7764 8.10669 56.8374 8.2002C56.8525 8.22339 56.8662 8.24707 56.8789 8.27148C56.9043 8.31885 56.9258 8.3689 56.9434 8.42139C56.9697 8.50171 56.9873 8.58789 56.9956 8.67993H58.8716C58.8159 7.896 58.5122 7.27539 57.9619 6.81787C57.4111 6.35132 56.6738 6.11792 55.7495 6.11792C55.1245 6.11792 54.5786 6.2207 54.1118 6.42603C53.6543 6.63135 53.2998 6.91138 53.0479 7.26587C52.8052 7.62061 52.6836 8.0127 52.6836 8.44189C52.6836 8.9646 52.8145 9.37988 53.0757 9.68799C53.1226 9.74146 53.1709 9.79272 53.2207 9.84131C53.2798 9.89893 53.3408 9.95337 53.4038 10.0042C53.5938 10.158 53.8018 10.2812 54.0278 10.374C54.1772 10.4338 54.3433 10.4929 54.5259 10.5513C54.7988 10.6384 55.1089 10.7241 55.4556 10.8079C55.6694 10.865 55.8608 10.9207 56.0298 10.9749C56.3032 11.0627 56.5181 11.1472 56.6738 11.228C56.9351 11.3494 57.0659 11.5359 57.0659 11.7878C57.0659 11.9077 57.0376 12.0166 56.981 12.1143L56.9658 12.1394L56.9463 12.1675C56.916 12.2097 56.8799 12.2495 56.8379 12.2874C56.8091 12.3132 56.7778 12.3381 56.7437 12.3618C56.5386 12.5112 56.249 12.5859 55.8755 12.5859C55.4932 12.5859 55.1709 12.488 54.9097 12.292C54.8091 12.2139 54.7261 12.1277 54.6597 12.0334C54.5981 11.9458 54.5508 11.8511 54.5186 11.7493C54.4985 11.6855 54.4844 11.6191 54.4756 11.55H52.502C52.5298 12.0259 52.6885 12.46 52.9775 12.8521C53.2764 13.2439 53.6777 13.5566 54.1816 13.79ZM54.1118 5.59985L57.3315 4.12988V2.53394L54.1118 4.19995V5.59985ZM46.9512 14.1018C46.3965 14.0454 45.8867 13.8901 45.4224 13.636C44.8247 13.2998 44.3535 12.8286 44.0083 12.2219C43.6724 11.6152 43.5039 10.9153 43.5039 10.1218C43.5039 9.32861 43.6768 8.62866 44.022 8.02197C44.377 7.41528 44.8574 6.94849 45.4644 6.62183C46.0708 6.28589 46.7476 6.11792 47.4941 6.11792C47.7056 6.11792 47.9111 6.13135 48.1113 6.1582C48.3545 6.19092 48.5894 6.24341 48.8159 6.31592C49.062 6.39453 49.2979 6.49658 49.5239 6.62183C50.1309 6.94849 50.6069 7.41528 50.9521 8.02197C51.3066 8.62866 51.4844 9.32861 51.4844 10.1218C51.4844 10.4216 51.4585 10.708 51.4062 10.9812C51.3208 11.4309 51.1646 11.8445 50.938 12.2219C50.5835 12.8286 50.0981 13.2998 49.4819 13.636C48.8755 13.9626 48.1943 14.126 47.438 14.126C47.272 14.126 47.1099 14.1179 46.9512 14.1018ZM47.438 12.418C47.793 12.418 48.124 12.334 48.4321 12.166C48.7495 11.9885 49.0015 11.7273 49.188 11.3818C49.2739 11.2236 49.3398 11.0496 49.3862 10.8599C49.4409 10.6357 49.4683 10.3899 49.4683 10.1218C49.4683 9.38452 49.272 8.81982 48.8804 8.42798C48.4976 8.02661 48.0264 7.82593 47.4663 7.82593C46.9062 7.82593 46.4346 8.02661 46.0522 8.42798C45.6787 8.81982 45.4922 9.38452 45.4922 10.1218C45.4922 10.8594 45.6743 11.4285 46.0381 11.8298C46.1406 11.9373 46.25 12.03 46.3667 12.1082C46.4897 12.1907 46.6206 12.2568 46.7593 12.3064C46.9678 12.3809 47.1938 12.418 47.438 12.418ZM40.6655 14L42.9336 6.2439H41.0576L39.6855 12.1379L38.2295 6.2439H36.1577L34.6733 12.1519L33.3013 6.2439H31.3135L33.5957 14H35.7236L37.1377 8.58179L38.5513 14H40.6655ZM26.6978 14.126C25.9512 14.126 25.2793 13.9626 24.6821 13.636C24.0845 13.2998 23.6133 12.8286 23.2681 12.2219C22.9321 11.6152 22.7637 10.9153 22.7637 10.1218C22.7637 9.32861 22.9365 8.62866 23.2817 8.02197C23.6367 7.41528 24.1172 6.94849 24.7241 6.62183C25.3306 6.28589 26.0073 6.11792 26.7539 6.11792C27.5005 6.11792 28.1772 6.28589 28.7837 6.62183C28.9976 6.73682 29.1953 6.86938 29.3765 7.01929C29.71 7.29468 29.9883 7.62891 30.2119 8.02197C30.5664 8.62866 30.7441 9.32861 30.7441 10.1218C30.7441 10.3311 30.7314 10.5339 30.7061 10.7302C30.6353 11.2781 30.4658 11.7751 30.1978 12.2219C29.8433 12.8286 29.3579 13.2998 28.7417 13.636C28.1353 13.9626 27.4541 14.126 26.6978 14.126ZM26.6978 12.418C26.9072 12.418 27.1084 12.3887 27.3008 12.3303C27.4351 12.2896 27.5654 12.2349 27.6919 12.166C28.0093 11.9885 28.2612 11.7273 28.4478 11.3818C28.6348 11.0366 28.728 10.6167 28.728 10.1218C28.728 9.38452 28.5317 8.81982 28.1401 8.42798C27.7573 8.02661 27.2861 7.82593 26.7261 7.82593C26.4668 7.82593 26.2271 7.8689 26.0059 7.95483C25.8213 8.02637 25.6499 8.12793 25.4917 8.25952C25.4297 8.31104 25.3696 8.36719 25.312 8.42798C24.9385 8.81982 24.752 9.38452 24.752 10.1218C24.752 10.8594 24.9341 11.4285 25.2979 11.8298C25.6714 12.2219 26.1377 12.418 26.6978 12.418ZM19.3569 14H21.3169V4.21411H19.3569V10.9341L14.9189 4.21411H12.959V14H14.9189V7.29419L19.3569 14Z" fill="#00AA25"/>
</svg>
