<svg width="80" height="19" viewBox="0 0 80 19" fill="none" xmlns="http://www.w3.org/2000/svg">
<path fill-rule="evenodd" clip-rule="evenodd" d="M0 0H80V19H0V0ZM65.2285 10.094C65.2285 9.854 65.2429 9.62231 65.2717 9.39893C65.3372 8.89233 65.4768 8.42871 65.6904 8.00781C65.7747 7.84668 65.8665 7.69556 65.9658 7.5542C66.0747 7.39966 66.1924 7.25684 66.3191 7.12598C66.5132 6.92578 66.7283 6.75293 66.9646 6.60791C67.5059 6.28125 68.1079 6.11792 68.7705 6.11792C69.3491 6.11792 69.8533 6.23462 70.2825 6.46802C70.7212 6.70117 71.0713 6.99536 71.3325 7.34985V6.2439H73.3066V14H71.3325V12.866C71.0806 13.23 70.7305 13.5332 70.2825 13.7759C69.8438 14.0093 69.3352 14.126 68.7566 14.126C68.1033 14.126 67.5059 13.958 66.9646 13.6218C66.4326 13.2859 66.0078 12.8147 65.6904 12.208C65.5024 11.8318 65.3718 11.4224 65.2986 10.98C65.2798 10.8657 65.2646 10.7493 65.2534 10.6309C65.2444 10.5364 65.2378 10.4407 65.2336 10.3435C65.2302 10.2612 65.2285 10.1782 65.2285 10.094ZM71.3325 10.1218C71.3325 9.646 71.2393 9.23999 71.0525 8.90381C71.0049 8.81567 70.9531 8.73315 70.897 8.65601C70.8477 8.58813 70.7952 8.52466 70.7393 8.46533C70.6094 8.32739 70.4619 8.2124 70.2966 8.11987C69.9792 7.93335 69.6384 7.83984 69.2744 7.83984C69.1672 7.83984 69.0625 7.84741 68.9602 7.86279C68.8552 7.87866 68.7527 7.90259 68.6528 7.93457C68.5195 7.97729 68.3909 8.03442 68.2666 8.10596C67.9585 8.2832 67.7065 8.54468 67.5105 8.88989C67.324 9.22583 67.2305 9.6272 67.2305 10.094C67.2305 10.5605 67.324 10.9712 67.5105 11.3259C67.7065 11.6711 67.9585 11.9373 68.2666 12.124C68.5837 12.3105 68.9199 12.4038 69.2744 12.4038C69.6384 12.4038 69.9792 12.3152 70.2966 12.1379C70.6138 11.9512 70.866 11.6899 71.0525 11.354C71.2393 11.0085 71.3325 10.5979 71.3325 10.1218ZM61.948 4.99805C62.1814 5.21265 62.4753 5.31982 62.8301 5.31982C63.1755 5.31982 63.4602 5.21265 63.6841 4.99805C63.9082 4.77393 64.02 4.49854 64.02 4.17188C64.02 3.98975 63.9854 3.82495 63.9155 3.67749C63.8604 3.56079 63.7832 3.45483 63.6841 3.35986C63.4602 3.13599 63.1755 3.02393 62.8301 3.02393C62.4753 3.02393 62.1814 3.13599 61.948 3.35986C61.7241 3.57471 61.6121 3.84521 61.6121 4.17188C61.6121 4.49854 61.7241 4.77393 61.948 4.99805ZM63.1521 17.1218C63.5815 16.7485 63.7961 16.1326 63.7961 15.2739V6.2439H61.8362V15.2878C61.8362 15.5493 61.7754 15.7358 61.6541 15.8479C61.5327 15.9692 61.3228 16.03 61.0242 16.03H60.4641V17.696H61.332C62.1255 17.696 62.7322 17.5046 63.1521 17.1218ZM52.9102 10.1218C52.9102 9.31934 53.0735 8.61914 53.4001 8.02197C53.7268 7.41528 54.1794 6.94849 54.7581 6.62183C55.3369 6.28589 55.9995 6.11792 56.7461 6.11792C57.7075 6.11792 58.5007 6.3606 59.1262 6.84595C59.7607 7.32202 60.1855 7.9939 60.4001 8.86182H58.2861C58.1741 8.52588 57.9829 8.26465 57.7122 8.07788C57.4509 7.88184 57.1243 7.78394 56.7322 7.78394C56.1721 7.78394 55.7288 7.98926 55.4021 8.3999C55.0754 8.80127 54.9121 9.37524 54.9121 10.1218C54.9121 10.8594 55.0754 11.4333 55.4021 11.844C55.7288 12.2454 56.1721 12.4458 56.7322 12.4458C57.5254 12.4458 58.0435 12.0913 58.2861 11.3818H60.4001C60.1855 12.2219 59.7607 12.8892 59.1262 13.384C58.4915 13.8787 57.6982 14.126 56.7461 14.126C55.9995 14.126 55.3369 13.9626 54.7581 13.636C54.1794 13.2998 53.7268 12.8333 53.4001 12.2358C53.0735 11.6292 52.9102 10.9246 52.9102 10.1218ZM45.9146 13.636C46.512 13.9626 47.1838 14.126 47.9307 14.126C48.6865 14.126 49.3679 13.9626 49.9746 13.636C50.5906 13.2998 51.0759 12.8286 51.4307 12.2219C51.7947 11.6152 51.9766 10.9153 51.9766 10.1218C51.9766 9.32861 51.7993 8.62866 51.4446 8.02197C51.0994 7.41528 50.6233 6.94849 50.0166 6.62183C49.4099 6.28589 48.7332 6.11792 47.9866 6.11792C47.5659 6.11792 47.1675 6.17139 46.7913 6.27808C46.4998 6.3606 46.2214 6.4751 45.9565 6.62183C45.3499 6.94849 44.8691 7.41528 44.5146 8.02197C44.2837 8.42749 44.1299 8.87476 44.0535 9.36377C44.0156 9.6062 43.9966 9.85889 43.9966 10.1218C43.9966 10.9153 44.1646 11.6152 44.5005 12.2219C44.5923 12.3833 44.6931 12.5352 44.8027 12.6775C44.8323 12.7156 44.8623 12.7532 44.8931 12.7898C44.9521 12.8604 45.0134 12.9285 45.0771 12.9939C45.3215 13.2454 45.6006 13.4592 45.9146 13.636ZM48.9246 12.166C48.6167 12.334 48.2852 12.418 47.9307 12.418C47.3706 12.418 46.9038 12.2219 46.5305 11.8298C46.1665 11.4285 45.9846 10.8594 45.9846 10.1218C45.9846 9.60693 46.0757 9.17627 46.2578 8.82983C46.3364 8.68018 46.4321 8.54614 46.5447 8.42798C46.9272 8.02661 47.3987 7.82593 47.9585 7.82593C48.2812 7.82593 48.5745 7.89258 48.8381 8.02588C48.9062 8.0603 48.9724 8.09888 49.0366 8.14209C49.1553 8.22217 49.2673 8.31738 49.3726 8.42798C49.7646 8.81982 49.9607 9.38452 49.9607 10.1218C49.9607 10.197 49.9585 10.2705 49.9541 10.3423C49.9424 10.5391 49.9143 10.7227 49.8701 10.8933C49.8245 11.0701 49.7612 11.2329 49.6807 11.3818C49.4939 11.7273 49.2419 11.9885 48.9246 12.166ZM40.751 6.35815C40.9104 6.42041 41.0618 6.49536 41.2048 6.58325C41.3999 6.70312 41.5798 6.84668 41.7446 7.01416C42.3328 7.59277 42.6267 8.40479 42.6267 9.4502V14H40.6667V9.71606C40.6667 9.10938 40.5127 8.64746 40.2046 8.33008C39.8967 8.00342 39.4766 7.84009 38.9446 7.84009C38.4126 7.84009 37.988 8.00342 37.6707 8.33008C37.3625 8.64746 37.2087 9.10938 37.2087 9.71606V14H35.2485V9.71606C35.2485 9.61011 35.2439 9.50854 35.2344 9.41138C35.2268 9.33252 35.2161 9.25659 35.2021 9.18359C35.1941 9.14111 35.1851 9.09961 35.175 9.05908C35.1013 8.76367 34.9719 8.52075 34.7866 8.33008C34.4788 8.00342 34.0586 7.84009 33.5266 7.84009C33.3186 7.84009 33.1272 7.86426 32.9521 7.9126C32.6719 7.98975 32.4341 8.12891 32.2388 8.33008C32.0635 8.5105 31.938 8.73779 31.8625 9.01196C31.8052 9.21973 31.7766 9.45435 31.7766 9.71606V14H29.8167V6.24414H31.7766V7.18213C31.9465 6.96191 32.1484 6.77319 32.3821 6.6167C32.4949 6.54102 32.615 6.4729 32.7427 6.41211C32.9546 6.31348 33.177 6.24097 33.4097 6.19434C33.6177 6.15283 33.834 6.13208 34.0586 6.13208C34.6653 6.13208 35.2065 6.2627 35.6826 6.52417C36.1587 6.77612 36.5273 7.14014 36.7886 7.61597C36.9246 7.37427 37.093 7.15869 37.2939 6.96875C37.3738 6.89331 37.4587 6.82202 37.5488 6.75488C37.6526 6.67725 37.7632 6.60498 37.8806 6.53809C38.366 6.26733 38.8887 6.13208 39.4487 6.13208C39.624 6.13208 39.7927 6.14209 39.9553 6.16187C40.2397 6.19678 40.5051 6.26221 40.751 6.35815ZM22.3169 13.636C22.9143 13.9626 23.5862 14.126 24.333 14.126C25.0889 14.126 25.7703 13.9626 26.377 13.636C26.7192 13.4492 27.021 13.2207 27.2825 12.9504C27.4917 12.7344 27.6753 12.4915 27.833 12.2219C28.197 11.6152 28.3789 10.9153 28.3789 10.1218C28.3789 9.32861 28.2017 8.62866 27.8469 8.02197C27.6243 7.63062 27.3469 7.29736 27.0154 7.02246C26.833 6.87134 26.6343 6.73779 26.4189 6.62183C25.8123 6.28589 25.1355 6.11792 24.3889 6.11792C23.6423 6.11792 22.9656 6.28589 22.3589 6.62183C21.7522 6.94849 21.2715 7.41528 20.917 8.02197C20.5715 8.62866 20.3989 9.32861 20.3989 10.1218C20.3989 10.9153 20.5669 11.6152 20.9028 12.2219C21.2483 12.8286 21.7195 13.2998 22.3169 13.636ZM25.3269 12.166C25.019 12.334 24.6875 12.418 24.333 12.418C23.7729 12.418 23.3062 12.2219 22.9329 11.8298C22.5688 11.4285 22.387 10.8594 22.387 10.1218C22.387 9.92407 22.4004 9.73877 22.4272 9.56616C22.4578 9.3689 22.5059 9.18774 22.5715 9.02271C22.6199 8.90112 22.6777 8.78833 22.7451 8.68433C22.8049 8.59204 22.8721 8.50659 22.947 8.42798C23.1477 8.21753 23.3728 8.06226 23.6226 7.96216C23.6538 7.94971 23.6855 7.93799 23.7178 7.92725C23.7444 7.91821 23.7712 7.90991 23.7983 7.9021C23.9746 7.85132 24.1621 7.82593 24.3608 7.82593C24.9209 7.82593 25.3923 8.02661 25.7749 8.42798C26.167 8.81982 26.363 9.38452 26.363 10.1218C26.363 10.6167 26.2695 11.0366 26.083 11.3818C25.9941 11.5464 25.8904 11.6917 25.772 11.8181C25.6846 11.9111 25.5891 11.9939 25.4858 12.0664C25.4348 12.1021 25.3818 12.1353 25.3269 12.166ZM17.1887 7.448C17.4407 7.03735 17.7673 6.71533 18.1687 6.48218C18.5793 6.24878 19.0461 6.13208 19.5688 6.13208V8.19019H19.0508C18.4348 8.19019 17.968 8.33472 17.6509 8.62402C17.5266 8.74072 17.4272 8.89258 17.353 9.07935C17.3137 9.17847 17.2812 9.2876 17.2561 9.40649C17.2112 9.61841 17.1887 9.86157 17.1887 10.136V14H15.2288V6.24414H17.1887V7.448ZM13.4592 8.72192C13.7112 8.26465 13.8372 7.77466 13.8372 7.25195C13.8372 6.99194 13.8098 6.74414 13.7551 6.50854C13.6882 6.21997 13.5803 5.94971 13.4312 5.698C13.1699 5.24072 12.7732 4.88135 12.2412 4.62012C11.7092 4.35864 11.0652 4.22803 10.3091 4.22803H6.71118V14H8.67114V10.248H10.3091C11.1118 10.248 11.7744 10.1079 12.2971 9.82812C12.8291 9.5481 13.2166 9.17944 13.4592 8.72192ZM11.4292 8.302C11.168 8.54468 10.7666 8.66602 10.2251 8.66602H8.67114V5.82397H10.2251C11.2891 5.82397 11.8213 6.30005 11.8213 7.25195C11.8213 7.69995 11.6904 8.05005 11.4292 8.302Z" fill="#05A6D9"/>
</svg>
