<svg width="80" height="19" viewBox="0 0 80 19" fill="none" xmlns="http://www.w3.org/2000/svg">
<path fill-rule="evenodd" clip-rule="evenodd" d="M0 0H80V19H0V0ZM75.429 6.2439L70.627 17.668H68.541L70.2209 13.804L67.113 6.2439H69.311L71.313 11.6619L73.343 6.2439H75.429ZM65.2671 7.01416C64.6885 6.42603 63.9231 6.13208 62.9712 6.13208C62.4111 6.13208 61.8884 6.26733 61.4031 6.53809C61.2666 6.61572 61.1394 6.70044 61.0212 6.79272C60.9832 6.82251 60.946 6.85303 60.9099 6.88428C60.8633 6.92456 60.8181 6.96606 60.7747 7.00879C60.592 7.18896 60.4375 7.39136 60.311 7.61597C60.158 7.33716 59.968 7.09668 59.741 6.89453C59.6633 6.82544 59.5815 6.76099 59.4954 6.70093C59.4036 6.63672 59.3066 6.57788 59.2051 6.52417C58.729 6.2627 58.1877 6.13208 57.5811 6.13208C57.1052 6.13208 56.6665 6.22534 56.2651 6.41211C56.0417 6.51831 55.8411 6.64746 55.6631 6.79932C55.5288 6.91382 55.4075 7.0415 55.2991 7.18213V6.24414H53.3391V14H55.2991V9.71606C55.2991 9.30688 55.3691 8.96362 55.5093 8.68604C55.5769 8.552 55.6609 8.43335 55.7612 8.33008C55.9263 8.16016 56.1216 8.03442 56.3474 7.95288C56.5554 7.87769 56.7893 7.84009 57.0491 7.84009C57.5811 7.84009 58.0012 8.00342 58.3091 8.33008C58.6172 8.64746 58.771 9.10938 58.771 9.71606V14H60.7312V9.71606L60.7324 9.62866L60.7351 9.5542C60.7402 9.44849 60.7502 9.34741 60.7656 9.25098L60.7759 9.19238L60.7903 9.12061C60.804 9.05713 60.8203 8.99634 60.8391 8.9375L60.8525 8.89697L60.8743 8.83765C60.9502 8.64014 61.0564 8.47095 61.1931 8.33008C61.5105 8.00342 61.9351 7.84009 62.467 7.84009C62.999 7.84009 63.4192 8.00342 63.7271 8.33008C63.7996 8.40479 63.8638 8.48755 63.9192 8.57837C63.9626 8.6499 64.001 8.72607 64.0342 8.80737C64.1375 9.06177 64.1892 9.3645 64.1892 9.71606V14H66.1492V9.4502C66.1492 8.40479 65.8552 7.59277 65.2671 7.01416ZM43.3784 9.49585C43.3909 9.38135 43.4072 9.26904 43.427 9.15894C43.4675 8.93555 43.5232 8.72095 43.594 8.51514C43.625 8.42554 43.6589 8.3374 43.6956 8.25098C43.7102 8.21631 43.7256 8.18188 43.7412 8.14771C43.7627 8.10059 43.7852 8.05396 43.8086 8.00781C44.126 7.40137 44.5508 6.93457 45.0828 6.60791C45.624 6.28125 46.2261 6.11792 46.8887 6.11792C47.4673 6.11792 47.9714 6.23462 48.4006 6.46802C48.8394 6.70117 49.1895 6.99536 49.4507 7.34985V6.2439H51.4246V14H49.4507V12.866C49.1987 13.23 48.8486 13.5332 48.4006 13.7759C47.9619 14.0093 47.4534 14.126 46.8748 14.126C46.2214 14.126 45.624 13.958 45.0828 13.6218C44.7451 13.4087 44.4507 13.1409 44.1995 12.8186C44.0549 12.6333 43.9246 12.4297 43.8086 12.208C43.5007 11.592 43.3467 10.8872 43.3467 10.094C43.3467 9.88867 43.3572 9.68921 43.3784 9.49585ZM49.4358 9.80249C49.4026 9.46167 49.3142 9.16211 49.1707 8.90381C48.9841 8.55859 48.7319 8.29736 48.4148 8.11987C48.0974 7.93335 47.7566 7.83984 47.3926 7.83984C47.0286 7.83984 46.6926 7.92847 46.3848 8.10596C46.0767 8.2832 45.8247 8.54468 45.6287 8.88989C45.564 9.0061 45.5105 9.13013 45.4683 9.26221C45.4343 9.36792 45.4077 9.47876 45.3882 9.59448C45.3618 9.75171 45.3486 9.91821 45.3486 10.094C45.3486 10.5605 45.4419 10.9712 45.6287 11.3259C45.8247 11.6711 46.0767 11.9373 46.3848 12.124C46.7019 12.3105 47.0381 12.4038 47.3926 12.4038C47.5757 12.4038 47.7532 12.3813 47.9246 12.3364C48.0938 12.2922 48.2571 12.2261 48.4148 12.1379C48.5525 12.0569 48.6777 11.9619 48.791 11.8528C48.9385 11.7104 49.0652 11.5442 49.1707 11.354C49.2458 11.2148 49.3059 11.0652 49.3508 10.905C49.4175 10.6672 49.4507 10.4062 49.4507 10.1218C49.4507 10.0117 49.4458 9.90527 49.4358 9.80249ZM35.4148 8.02197C35.0881 8.61914 34.9248 9.31934 34.9248 10.1218C34.9248 10.9246 35.0881 11.6292 35.4148 12.2358C35.7415 12.8333 36.1941 13.2998 36.7727 13.636C37.3516 13.9626 38.0142 14.126 38.7607 14.126C39.7129 14.126 40.5061 13.8787 41.1409 13.384C41.7754 12.8892 42.2002 12.2219 42.4148 11.3818H40.3008C40.0581 12.0913 39.54 12.4458 38.7468 12.4458C38.397 12.4458 38.0928 12.3677 37.834 12.2109C37.6785 12.1169 37.5393 11.9946 37.4167 11.844C37.0901 11.4333 36.9268 10.8594 36.9268 10.1218C36.9268 9.37524 37.0901 8.80127 37.4167 8.3999C37.7434 7.98926 38.1868 7.78394 38.7468 7.78394C39 7.78394 39.2258 7.82471 39.4246 7.90649C39.5334 7.95142 39.6343 8.00854 39.7268 8.07788C39.7964 8.12573 39.8606 8.17871 39.9197 8.23657C39.958 8.27417 39.9941 8.31372 40.0281 8.35522C40.0632 8.39844 40.0959 8.44385 40.1265 8.4917C40.1975 8.60303 40.2554 8.72632 40.3008 8.86182H42.4148C42.2002 7.9939 41.7754 7.32202 41.1409 6.84595C40.5154 6.3606 39.7222 6.11792 38.7607 6.11792C38.0142 6.11792 37.3516 6.28589 36.7727 6.62183C36.1941 6.94849 35.7415 7.41528 35.4148 8.02197ZM33.9983 9.95386C33.9983 10.2339 33.9795 10.4858 33.9421 10.71H28.2722C28.2986 11.0266 28.3728 11.3044 28.4946 11.5435C28.5422 11.6367 28.5972 11.7241 28.6592 11.8057C28.7192 11.8845 28.7861 11.958 28.8601 12.0259C29.2056 12.3433 29.6301 12.502 30.1343 12.502C30.8621 12.502 31.3801 12.1892 31.6882 11.564H33.8022C33.5781 12.3105 33.1489 12.9265 32.5142 13.4119C32.1531 13.6826 31.7451 13.8765 31.2905 13.9932C31.0964 14.043 30.8938 14.0789 30.6826 14.1006C30.519 14.1174 30.3503 14.126 30.1763 14.126C29.4294 14.126 28.7576 13.9626 28.1602 13.636C27.5723 13.2998 27.1101 12.8286 26.7742 12.2219C26.4475 11.6152 26.2842 10.9153 26.2842 10.1218C26.2842 9.70044 26.3291 9.30591 26.4192 8.93848C26.5007 8.6062 26.6191 8.2959 26.7742 8.00781C27.1008 7.40137 27.5581 6.93457 28.1462 6.60791C28.3938 6.47046 28.657 6.36182 28.936 6.28223C29.3198 6.17261 29.7332 6.11792 30.1763 6.11792C30.9136 6.11792 31.5715 6.27661 32.1501 6.59399C32.7383 6.91113 33.1909 7.36401 33.5083 7.9519C33.5625 8.04761 33.6121 8.146 33.6572 8.24683C33.7217 8.39062 33.7771 8.53931 33.8232 8.69312C33.8462 8.76929 33.8669 8.84668 33.8853 8.92554C33.9607 9.2478 33.9983 9.59058 33.9983 9.95386ZM31.9683 9.3938C31.9587 8.88989 31.7769 8.48853 31.4221 8.18994C31.0676 7.88184 30.6335 7.72803 30.1201 7.72803C29.8757 7.72803 29.6504 7.76587 29.4438 7.84155C29.2402 7.91626 29.0549 8.02759 28.8882 8.17603C28.5615 8.46533 28.3608 8.87134 28.2861 9.3938H31.9683ZM24.8518 14V3.63989H22.8918V14H24.8518ZM17.4082 14.126C16.6614 14.126 15.9895 13.9626 15.3921 13.636C15.1299 13.4883 14.8918 13.3147 14.6782 13.115C14.4053 12.8599 14.1719 12.5623 13.978 12.2219C13.6421 11.6152 13.4741 10.9153 13.4741 10.1218C13.4741 9.32861 13.6467 8.62866 13.9922 8.02197C14.3467 7.41528 14.8274 6.94849 15.4341 6.62183C16.0408 6.28589 16.7175 6.11792 17.4641 6.11792C18.2107 6.11792 18.8875 6.28589 19.4941 6.62183C20.1008 6.94849 20.5769 7.41528 20.9221 8.02197C21.2769 8.62866 21.4541 9.32861 21.4541 10.1218C21.4541 10.7371 21.3447 11.2959 21.126 11.7988C21.0625 11.9446 20.99 12.0857 20.9082 12.2219C20.5535 12.8286 20.0681 13.2998 19.4521 13.636C18.8455 13.9626 18.1641 14.126 17.4082 14.126ZM17.4082 12.418C17.7627 12.418 18.0942 12.334 18.4021 12.166C18.7195 11.9885 18.9714 11.7273 19.1582 11.3818C19.3447 11.0366 19.4382 10.6167 19.4382 10.1218C19.4382 9.38452 19.2422 8.81982 18.8501 8.42798C18.4675 8.02661 17.9961 7.82593 17.436 7.82593C16.8762 7.82593 16.4048 8.02661 16.0222 8.42798C15.6487 8.81982 15.4622 9.38452 15.4622 10.1218C15.4622 10.8594 15.644 11.4285 16.0081 11.8298C16.3813 12.2219 16.8481 12.418 17.4082 12.418ZM12.1946 8.72192C12.4465 8.26465 12.5725 7.77466 12.5725 7.25195C12.5725 6.67334 12.4373 6.15527 12.1665 5.698C11.9053 5.24072 11.5085 4.88135 10.9766 4.62012C10.4446 4.35864 9.80054 4.22803 9.04443 4.22803H5.44653V14H7.40649V10.248H9.04443C9.84717 10.248 10.5098 10.1079 11.0325 9.82812C11.5645 9.5481 11.9519 9.17944 12.1946 8.72192ZM10.1646 8.302C9.90332 8.54468 9.50195 8.66602 8.96045 8.66602H7.40649V5.82397H8.96045C10.0244 5.82397 10.5566 6.30005 10.5566 7.25195C10.5566 7.69995 10.4258 8.05005 10.1646 8.302Z" fill="#F7C000"/>
</svg>
