<svg width="15" height="12" viewBox="0 0 15 12" fill="none" xmlns="http://www.w3.org/2000/svg">
<g id="Vector">
<path d="M0.46875 7.5432C0.59307 7.5432 0.712299 7.58489 0.800206 7.65909C0.888114 7.7333 0.9375 7.83394 0.9375 7.93888V9.91728C0.9375 10.1272 1.03627 10.3284 1.21209 10.4769C1.3879 10.6253 1.62636 10.7086 1.875 10.7086H13.125C13.3736 10.7086 13.6121 10.6253 13.7879 10.4769C13.9637 10.3284 14.0625 10.1272 14.0625 9.91728V7.93888C14.0625 7.83394 14.1119 7.7333 14.1998 7.65909C14.2877 7.58489 14.4069 7.5432 14.5312 7.5432C14.6556 7.5432 14.7748 7.58489 14.8627 7.65909C14.9506 7.7333 15 7.83394 15 7.93888V9.91728C15 10.337 14.8025 10.7396 14.4508 11.0364C14.0992 11.3333 13.6223 11.5 13.125 11.5H1.875C1.37772 11.5 0.900806 11.3333 0.549175 11.0364C0.197544 10.7396 0 10.337 0 9.91728V7.93888C0 7.83394 0.049386 7.7333 0.137294 7.65909C0.225201 7.58489 0.34443 7.5432 0.46875 7.5432Z" fill="#FFFFFF"/>
<path d="M7.16813 9.08942C7.21167 9.12626 7.2634 9.1555 7.32035 9.17545C7.3773 9.19539 7.43835 9.20566 7.50001 9.20566C7.56166 9.20566 7.62271 9.19539 7.67966 9.17545C7.73661 9.1555 7.78834 9.12626 7.83188 9.08942L10.6444 6.71534C10.7324 6.64104 10.7818 6.54027 10.7818 6.4352C10.7818 6.33012 10.7324 6.22935 10.6444 6.15505C10.5564 6.08076 10.437 6.03902 10.3125 6.03902C10.188 6.03902 10.0686 6.08076 9.98063 6.15505L7.96876 7.8541V0.89568C7.96876 0.790739 7.91937 0.690096 7.83146 0.615892C7.74356 0.541688 7.62433 0.5 7.50001 0.5C7.37569 0.5 7.25646 0.541688 7.16855 0.615892C7.08064 0.690096 7.03126 0.790739 7.03126 0.89568V7.8541L5.01938 6.15505C4.93136 6.08076 4.81198 6.03902 4.68751 6.03902C4.56303 6.03902 4.44365 6.08076 4.35563 6.15505C4.26761 6.22935 4.21816 6.33012 4.21816 6.4352C4.21816 6.54027 4.26761 6.64104 4.35563 6.71534L7.16813 9.08942Z" fill="#FFFFFF"/>
</g>
</svg>
