<svg width="15" height="12" viewBox="0 0 15 12" fill="none" xmlns="http://www.w3.org/2000/svg">
<path id="Vector" d="M0 1.875C0 1.37772 0.197544 0.900805 0.549175 0.549175C0.900805 0.197544 1.37772 0 1.875 0H13.125C13.6223 0 14.0992 0.197544 14.4508 0.549175C14.8025 0.900805 15 1.37772 15 1.875V9.375C15 9.87228 14.8025 10.3492 14.4508 10.7008C14.0992 11.0525 13.6223 11.25 13.125 11.25H1.875C1.37772 11.25 0.900805 11.0525 0.549175 10.7008C0.197544 10.3492 0 9.87228 0 9.375V1.875ZM1.875 0.9375C1.62636 0.9375 1.3879 1.03627 1.21209 1.21209C1.03627 1.3879 0.9375 1.62636 0.9375 1.875V2.07844L7.5 6.01594L14.0625 2.07844V1.875C14.0625 1.62636 13.9637 1.3879 13.7879 1.21209C13.6121 1.03627 13.3736 0.9375 13.125 0.9375H1.875ZM14.0625 3.17156L9.64875 5.82L14.0625 8.53594V3.17156ZM14.0306 9.61781L8.74312 6.36375L7.5 7.10906L6.25688 6.36375L0.969375 9.61688C1.02265 9.81637 1.1403 9.9927 1.30405 10.1185C1.46781 10.2443 1.66851 10.3125 1.875 10.3125H13.125C13.3314 10.3125 13.532 10.2445 13.6957 10.1189C13.8595 9.99326 13.9772 9.81714 14.0306 9.61781ZM0.9375 8.53594L5.35125 5.82L0.9375 3.17156V8.53594Z" fill="#ADADAD"/>
</svg>
