<svg width="24" height="24" viewBox="0 0 24 24" fill="none" xmlns="http://www.w3.org/2000/svg">
<g id="heart">
<path id="Vector" d="M11.9998 5.12203L10.9243 4.01653C8.39984 1.42153 3.77084 2.31703 2.09984 5.57953C1.31534 7.11403 1.13834 9.32953 2.57084 12.157C3.95084 14.8795 6.82184 18.1405 11.9998 21.6925C17.1778 18.1405 20.0473 14.8795 21.4288 12.157C22.8613 9.32803 22.6858 7.11403 21.8998 5.57953C20.2288 2.31703 15.5998 1.42003 13.0753 4.01503L11.9998 5.12203ZM11.9998 23.5C-10.9997 8.30203 4.91834 -3.55997 11.7358 2.71453C11.8258 2.79703 11.9143 2.88253 11.9998 2.97103C12.0845 2.88261 12.1725 2.79754 12.2638 2.71603C19.0798 -3.56297 34.9993 8.30053 11.9998 23.5Z" fill="#1C2026"/>
</g>
</svg>
