<svg width="14" height="14" viewBox="0 0 14 14" fill="none" xmlns="http://www.w3.org/2000/svg">
<g id="Vector">
<path d="M7 13.125C5.37555 13.125 3.81763 12.4797 2.66897 11.331C1.52031 10.1824 0.875 8.62445 0.875 7C0.875 5.37555 1.52031 3.81763 2.66897 2.66897C3.81763 1.52031 5.37555 0.875 7 0.875C8.62445 0.875 10.1824 1.52031 11.331 2.66897C12.4797 3.81763 13.125 5.37555 13.125 7C13.125 8.62445 12.4797 10.1824 11.331 11.331C10.1824 12.4797 8.62445 13.125 7 13.125ZM7 14C8.85652 14 10.637 13.2625 11.9497 11.9497C13.2625 10.637 14 8.85652 14 7C14 5.14348 13.2625 3.36301 11.9497 2.05025C10.637 0.737498 8.85652 0 7 0C5.14348 0 3.36301 0.737498 2.05025 2.05025C0.737498 3.36301 0 5.14348 0 7C0 8.85652 0.737498 10.637 2.05025 11.9497C3.36301 13.2625 5.14348 14 7 14Z" fill="#ADADAD"/>
<path d="M7 3.5C7.11603 3.5 7.22731 3.54609 7.30936 3.62814C7.39141 3.71019 7.4375 3.82147 7.4375 3.9375V6.5625H10.0625C10.1785 6.5625 10.2898 6.60859 10.3719 6.69064C10.4539 6.77269 10.5 6.88397 10.5 7C10.5 7.11603 10.4539 7.22731 10.3719 7.30936C10.2898 7.39141 10.1785 7.4375 10.0625 7.4375H7.4375V10.0625C7.4375 10.1785 7.39141 10.2898 7.30936 10.3719C7.22731 10.4539 7.11603 10.5 7 10.5C6.88397 10.5 6.77269 10.4539 6.69064 10.3719C6.60859 10.2898 6.5625 10.1785 6.5625 10.0625V7.4375H3.9375C3.82147 7.4375 3.71019 7.39141 3.62814 7.30936C3.54609 7.22731 3.5 7.11603 3.5 7C3.5 6.88397 3.54609 6.77269 3.62814 6.69064C3.71019 6.60859 3.82147 6.5625 3.9375 6.5625H6.5625V3.9375C6.5625 3.82147 6.60859 3.71019 6.69064 3.62814C6.77269 3.54609 6.88397 3.5 7 3.5Z" fill="#ADADAD"/>
</g>
</svg>
