<svg width="112" height="18" viewBox="0 0 112 18" fill="none" xmlns="http://www.w3.org/2000/svg">
<g id="Group 115">
<path id="Vector" d="M3.34433 16.7542C3.25327 17.2725 3.76461 17.6776 4.21524 17.4465L9.34033 14.8127L14.4642 17.4465C14.9149 17.6776 15.4262 17.2725 15.3352 16.7554L14.3662 11.2333L18.4779 7.31538C18.8632 6.94881 18.6647 6.27869 18.1487 6.20631L12.4306 5.39377L9.88086 0.342229C9.83229 0.239831 9.75566 0.153317 9.65987 0.0927374C9.56409 0.0321578 9.45308 0 9.33975 0C9.22641 0 9.11541 0.0321578 9.01962 0.0927374C8.92384 0.153317 8.84721 0.239831 8.79864 0.342229L6.24893 5.39494L0.530783 6.20748C0.0159396 6.27986 -0.183694 6.94997 0.200396 7.31655L4.31331 11.2345L3.34433 16.7565V16.7542Z" fill="#FFA800"/>
<path id="Vector_2" d="M26.4693 16.7542C26.3783 17.2725 26.8896 17.6776 27.3402 17.4465L32.4653 14.8127L37.5892 17.4465C38.0399 17.6776 38.5512 17.2725 38.4602 16.7554L37.4912 11.2333L41.6029 7.31538C41.9882 6.94881 41.7897 6.27869 41.2737 6.20631L35.5556 5.39377L33.0059 0.342229C32.9573 0.239831 32.8807 0.153317 32.7849 0.0927374C32.6891 0.0321578 32.5781 0 32.4647 0C32.3514 0 32.2404 0.0321578 32.1446 0.0927374C32.0488 0.153317 31.9722 0.239831 31.9236 0.342229L29.3739 5.39494L23.6558 6.20748C23.1409 6.27986 22.9413 6.94997 23.3254 7.31655L27.4383 11.2345L26.4693 16.7565V16.7542Z" fill="#FFA800"/>
<path id="Vector_3" d="M49.5943 16.7542C49.5033 17.2725 50.0146 17.6776 50.4652 17.4465L55.5903 14.8127L60.7142 17.4465C61.1649 17.6776 61.6762 17.2725 61.5852 16.7554L60.6162 11.2333L64.7279 7.31538C65.1132 6.94881 64.9147 6.27869 64.3987 6.20631L58.6806 5.39377L56.1309 0.342229C56.0823 0.239831 56.0057 0.153317 55.9099 0.0927374C55.8141 0.0321578 55.7031 0 55.5897 0C55.4764 0 55.3654 0.0321578 55.2696 0.0927374C55.1738 0.153317 55.0972 0.239831 55.0486 0.342229L52.4989 5.39494L46.7808 6.20748C46.2659 6.27986 46.0663 6.94997 46.4504 7.31655L50.5633 11.2345L49.5943 16.7565V16.7542Z" fill="#FFA800"/>
<path id="Vector_4" d="M72.7193 16.7542C72.6283 17.2725 73.1396 17.6776 73.5902 17.4465L78.7153 14.8127L83.8392 17.4465C84.2899 17.6776 84.8012 17.2725 84.7102 16.7554L83.7412 11.2333L87.8529 7.31538C88.2382 6.94881 88.0397 6.27869 87.5237 6.20631L81.8056 5.39377L79.2559 0.342229C79.2073 0.239831 79.1307 0.153317 79.0349 0.0927374C78.9391 0.0321578 78.8281 0 78.7147 0C78.6014 0 78.4904 0.0321578 78.3946 0.0927374C78.2988 0.153317 78.2222 0.239831 78.1736 0.342229L75.6239 5.39494L69.9058 6.20748C69.3909 6.27986 69.1913 6.94997 69.5754 7.31655L73.6883 11.2345L72.7193 16.7565V16.7542Z" fill="#FFA800"/>
<path id="Vector_5" d="M95.8443 16.7542C95.7533 17.2725 96.2646 17.6776 96.7152 17.4465L101.84 14.8127L106.964 17.4465C107.415 17.6776 107.926 17.2725 107.835 16.7554L106.866 11.2333L110.978 7.31538C111.363 6.94881 111.165 6.27869 110.649 6.20631L104.931 5.39377L102.381 0.342229C102.332 0.239831 102.256 0.153317 102.16 0.0927374C102.064 0.0321578 101.953 0 101.84 0C101.726 0 101.615 0.0321578 101.52 0.0927374C101.424 0.153317 101.347 0.239831 101.299 0.342229L98.7489 5.39494L93.0308 6.20748C92.5159 6.27986 92.3163 6.94997 92.7004 7.31655L96.8133 11.2345L95.8443 16.7565V16.7542Z" fill="#E4E8EB"/>
</g>
</svg>
