<svg width="25" height="27" viewBox="0 0 25 27" fill="none" xmlns="http://www.w3.org/2000/svg">
<g id="Group 37803">
<g id="Group 37801">
<path id="path210" d="M16.0997 8.58994C16.0997 10.5642 14.4993 12.1647 12.5249 12.1647C10.5506 12.1647 8.9502 10.5642 8.9502 8.58994C8.9502 6.61564 10.5506 5.01515 12.5249 5.01515C14.4993 5.01515 16.0997 6.61564 16.0997 8.58994Z" stroke="#333333" stroke-width="1.5" stroke-miterlimit="10" stroke-linecap="round" stroke-linejoin="round"/>
<path id="path214" d="M18.5311 3.94926C17.1023 2.10306 14.8589 1 12.5242 1C10.1894 1 7.94599 2.10306 6.51726 3.94926C4.90598 6.03195 4.61764 8.54144 5.46451 10.9939C6.2787 13.3514 8.00771 15.3174 9.4214 17.3436C10.4327 18.7931 11.4439 20.2425 12.4552 21.6925C12.478 21.7252 12.5014 21.7584 12.5242 21.7911C12.547 21.7584 12.5703 21.7252 12.5931 21.6925C13.6044 20.2425 14.6157 18.7931 15.6269 17.3436C17.0406 15.3174 18.7696 13.3514 19.5838 10.9939C20.4307 8.54144 20.1424 6.03195 18.5311 3.94926Z" stroke="#333333" stroke-width="1.5" stroke-miterlimit="10" stroke-linecap="round" stroke-linejoin="round"/>
<path id="path218" d="M7.76553 20.2L5.55371 21.5971L12.5237 26L19.4936 21.5971L17.2818 20.2" stroke="#333333" stroke-width="1.5" stroke-miterlimit="10" stroke-linecap="round" stroke-linejoin="round"/>
</g>
</g>
</svg>
