<svg width="25" height="25" viewBox="0 0 25 25" fill="none" xmlns="http://www.w3.org/2000/svg">
<g id="Group 37805">
<g id="Group 37804">
<g id="g10342">
<path id="path10344" d="M6 7.25009C6 3.7982 8.7982 1 12.2501 1C15.702 1 18.5002 3.7982 18.5002 7.25009C18.5002 10.702 15.702 13.5002 12.2501 13.5002C8.7982 13.5002 6 10.702 6 7.25009Z" stroke="#333333" stroke-width="1.5" stroke-linecap="round" stroke-linejoin="round"/>
</g>
<g id="g10346">
<path id="path10348" d="M19.6569 14.9163C20.7951 15.422 21.7055 16.0204 22.3958 16.6269C23.4479 17.5512 24.0466 18.8868 24.0466 20.2871V22.0936C24.0466 23.1721 23.1721 24.0466 22.0936 24.0466H2.95299C1.87451 24.0466 1 23.1721 1 22.0936V20.2871C1 18.8868 1.59875 17.5512 2.65087 16.6269C4.43248 15.0617 7.68112 13.5002 12.5231 13.5002" stroke="#333333" stroke-width="1.5" stroke-miterlimit="13.33" stroke-linecap="round"/>
</g>
</g>
</g>
</svg>
