<svg width="25" height="27" viewBox="0 0 25 27" fill="none" xmlns="http://www.w3.org/2000/svg">
<g id="Group 37818">
<g id="Group 37817">
<path id="path3738" d="M21.4274 6.03112V25.222C21.4274 25.6515 21.0788 26 20.6494 26H4.77801C4.34855 26 4 25.6515 4 25.222V1.77801C4 1.34855 4.34855 1 4.77801 1H16.4481" stroke="#333333" stroke-width="1.5" stroke-miterlimit="10" stroke-linecap="round" stroke-linejoin="round"/>
<path id="path3742" d="M21.4275 6.03113L16.4482 1.00001V6.03113H21.4275Z" stroke="#333333" stroke-width="1.5" stroke-miterlimit="10" stroke-linecap="round" stroke-linejoin="round"/>
<path id="path3746" d="M9.89859 5.06462C9.89859 5.06462 9.27665 4.49097 8.31804 4.77977C7.4378 5.04491 7.21918 6.24932 7.81737 6.71846C8.16083 6.98786 8.67763 7.20938 9.37411 7.45554C10.933 8.00658 10.3567 10.2049 8.77105 10.2156C8.15222 10.2197 7.8629 10.1804 7.31934 9.82473" stroke="#333333" stroke-width="1.5" stroke-miterlimit="10" stroke-linecap="round" stroke-linejoin="round"/>
<path id="path3750" d="M8.77148 11.0182V10.2158" stroke="#333333" stroke-width="1.5" stroke-miterlimit="10" stroke-linecap="round" stroke-linejoin="round"/>
<path id="path3754" d="M8.77148 4.70071V3.95642" stroke="#333333" stroke-width="1.5" stroke-miterlimit="10" stroke-linecap="round" stroke-linejoin="round"/>
<path id="path3758" d="M18.1077 22.6286H15.2031" stroke="#333333" stroke-width="1.5" stroke-miterlimit="10" stroke-linecap="round" stroke-linejoin="round"/>
<path id="path3762" d="M7.31934 14.3299H18.1077" stroke="#333333" stroke-width="1.5" stroke-miterlimit="10" stroke-linecap="round" stroke-linejoin="round"/>
<path id="path3766" d="M7.31934 17.6494H18.1077" stroke="#333333" stroke-width="1.5" stroke-miterlimit="10" stroke-linecap="round" stroke-linejoin="round"/>
</g>
</g>
</svg>
