<svg width="25" height="27" viewBox="0 0 25 27" fill="none" xmlns="http://www.w3.org/2000/svg">
<g id="Group 37802">
<g id="Group 37800">
<path id="Vector" d="M11.4746 11.1695H17.8305" stroke="#333333" stroke-width="1.5" stroke-miterlimit="10" stroke-linecap="round" stroke-linejoin="round"/>
<path id="Vector_2" d="M11.4746 15.4068H17.8305" stroke="#333333" stroke-width="1.5" stroke-miterlimit="10" stroke-linecap="round" stroke-linejoin="round"/>
<path id="Vector_3" d="M11.4746 19.6441H17.8305" stroke="#333333" stroke-width="1.5" stroke-miterlimit="10" stroke-linecap="round" stroke-linejoin="round"/>
<path id="Vector_4" d="M15.7114 3.11864C15.7114 4.28872 14.7628 5.23729 13.5928 5.23729H11.4741C10.304 5.23729 9.35547 4.28872 9.35547 3.11864C9.35547 1.94857 10.304 1 11.4741 1H13.5928C14.7628 1 15.7114 1.94857 15.7114 3.11864Z" stroke="#333333" stroke-width="1.5" stroke-miterlimit="10" stroke-linecap="round" stroke-linejoin="round"/>
<path id="Vector_5" d="M9.35593 3.11865H5.11864C3.94857 3.11865 3 4.06722 3 5.2373V23.8814C3 25.0514 3.94857 26 5.11864 26H19.9492C21.1192 26 22.0678 25.0514 22.0678 23.8814V5.2373C22.0678 4.06722 21.1192 3.11865 19.9492 3.11865" stroke="#333333" stroke-width="1.5" stroke-miterlimit="10" stroke-linecap="round" stroke-linejoin="round"/>
</g>
</g>
</svg>
