<svg width="121" height="35" viewBox="0 0 121 35" fill="none" xmlns="http://www.w3.org/2000/svg">
<path d="M33.8746 12.214L31.1026 22H30.0106L27.5466 13.656L25.0266 22L23.9626 22.014L21.2466 12.214H22.2966L24.5366 20.796L27.0426 12.214H28.1346L30.5706 20.796L32.8246 12.214H33.8746ZM35.8637 12.914C35.6677 12.914 35.4997 12.844 35.3597 12.704C35.2197 12.564 35.1497 12.3913 35.1497 12.186C35.1497 11.9807 35.2197 11.8127 35.3597 11.682C35.4997 11.542 35.6677 11.472 35.8637 11.472C36.0597 11.472 36.2277 11.542 36.3677 11.682C36.5077 11.8127 36.5777 11.9807 36.5777 12.186C36.5777 12.3913 36.5077 12.564 36.3677 12.704C36.2277 12.844 36.0597 12.914 35.8637 12.914ZM36.3537 14.356V22H35.3737V14.356H36.3537ZM45.4889 17.786C45.4889 18.122 45.4796 18.3787 45.4609 18.556H39.1189C39.1469 19.1347 39.2869 19.6293 39.5389 20.04C39.7909 20.4507 40.1222 20.7633 40.5329 20.978C40.9436 21.1833 41.3916 21.286 41.8769 21.286C42.5116 21.286 43.0436 21.132 43.4729 20.824C43.9116 20.516 44.2009 20.1007 44.3409 19.578H45.3769C45.2369 20.138 44.9756 20.628 44.5929 21.048C44.2102 21.4587 43.7249 21.7527 43.1369 21.93L42.5349 22.224C41.9469 22.5133 41.6529 22.854 41.6529 23.246C41.6529 23.47 41.7322 23.6427 41.8909 23.764C42.0496 23.8947 42.2596 23.96 42.5209 23.96C42.8009 23.96 43.0996 23.8947 43.4169 23.764V24.45C43.0809 24.5713 42.7449 24.632 42.4089 24.632C41.9609 24.632 41.5829 24.5247 41.2749 24.31C40.9762 24.1047 40.8269 23.7827 40.8269 23.344C40.8269 22.8773 41.0649 22.462 41.5409 22.098C40.8689 22.042 40.2762 21.8507 39.7629 21.524C39.2496 21.188 38.8482 20.7353 38.5589 20.166C38.2696 19.5873 38.1249 18.9247 38.1249 18.178C38.1249 17.3847 38.2836 16.6893 38.6009 16.092C38.9182 15.4947 39.3616 15.0373 39.9309 14.72C40.5002 14.4027 41.1489 14.244 41.8769 14.244C42.6049 14.244 43.2396 14.4027 43.7809 14.72C44.3316 15.0373 44.7516 15.4667 45.0409 16.008C45.3396 16.54 45.4889 17.1327 45.4889 17.786ZM44.4949 17.758C44.5042 17.1887 44.3876 16.7033 44.1449 16.302C43.9116 15.9007 43.5896 15.5973 43.1789 15.392C42.7682 15.1867 42.3202 15.084 41.8349 15.084C41.1069 15.084 40.4862 15.3173 39.9729 15.784C39.4596 16.2507 39.1749 16.9087 39.1189 17.758H44.4949ZM46.8339 18.178C46.8339 17.3847 46.9926 16.694 47.3099 16.106C47.6272 15.5087 48.0659 15.0513 48.6259 14.734C49.1859 14.4073 49.8252 14.244 50.5439 14.244C51.4866 14.244 52.2612 14.4773 52.8679 14.944C53.4839 15.4107 53.8806 16.0453 54.0579 16.848H53.0079C52.8772 16.2973 52.5926 15.868 52.1539 15.56C51.7246 15.2427 51.1879 15.084 50.5439 15.084C50.0306 15.084 49.5686 15.2007 49.1579 15.434C48.7472 15.6673 48.4206 16.0173 48.1779 16.484C47.9446 16.9413 47.8279 17.506 47.8279 18.178C47.8279 18.85 47.9446 19.4193 48.1779 19.886C48.4206 20.3527 48.7472 20.7027 49.1579 20.936C49.5686 21.1693 50.0306 21.286 50.5439 21.286C51.1879 21.286 51.7246 21.132 52.1539 20.824C52.5926 20.5067 52.8772 20.068 53.0079 19.508H54.0579C53.8806 20.292 53.4839 20.922 52.8679 21.398C52.2519 21.874 51.4772 22.112 50.5439 22.112C49.8252 22.112 49.1859 21.9533 48.6259 21.636C48.0659 21.3093 47.6272 20.852 47.3099 20.264C46.9926 19.6667 46.8339 18.9713 46.8339 18.178ZM62.7838 17.786C62.7838 18.122 62.7745 18.3787 62.7558 18.556H56.4138C56.4418 19.1347 56.5818 19.6293 56.8338 20.04C57.0858 20.4507 57.4172 20.7633 57.8278 20.978C58.2385 21.1833 58.6865 21.286 59.1718 21.286C59.8065 21.286 60.3385 21.132 60.7678 20.824C61.2065 20.516 61.4958 20.1007 61.6358 19.578H62.6718C62.4852 20.3247 62.0838 20.936 61.4678 21.412C60.8612 21.8787 60.0958 22.112 59.1718 22.112C58.4532 22.112 57.8092 21.9533 57.2398 21.636C56.6705 21.3093 56.2225 20.852 55.8958 20.264C55.5785 19.6667 55.4198 18.9713 55.4198 18.178C55.4198 17.3847 55.5785 16.6893 55.8958 16.092C56.2132 15.4947 56.6565 15.0373 57.2258 14.72C57.7952 14.4027 58.4438 14.244 59.1718 14.244C59.8998 14.244 60.5345 14.4027 61.0758 14.72C61.6265 15.0373 62.0465 15.4667 62.3358 16.008C62.6345 16.54 62.7838 17.1327 62.7838 17.786ZM61.7898 17.758C61.7992 17.1887 61.6825 16.7033 61.4398 16.302C61.2065 15.9007 60.8845 15.5973 60.4738 15.392C60.0632 15.1867 59.6152 15.084 59.1298 15.084C58.4018 15.084 57.7812 15.3173 57.2678 15.784C56.7545 16.2507 56.4698 16.9087 56.4138 17.758H61.7898ZM65.1368 12.914C64.9408 12.914 64.7728 12.844 64.6328 12.704C64.4928 12.564 64.4228 12.3913 64.4228 12.186C64.4228 11.9807 64.4928 11.8127 64.6328 11.682C64.7728 11.542 64.9408 11.472 65.1368 11.472C65.3328 11.472 65.4961 11.542 65.6268 11.682C65.7668 11.8127 65.8368 11.9807 65.8368 12.186C65.8368 12.3913 65.7668 12.564 65.6268 12.704C65.4961 12.844 65.3328 12.914 65.1368 12.914ZM65.6128 23.806C65.6128 24.422 65.4588 24.8747 65.1508 25.164C64.8428 25.4627 64.3808 25.612 63.7648 25.612H63.0788V24.772H63.6108C63.9748 24.772 64.2361 24.6927 64.3948 24.534C64.5535 24.3847 64.6328 24.128 64.6328 23.764V14.356H65.6128V23.806Z" fill="#333333"/>
<rect x="0.5" y="0.5" width="120" height="34" stroke="#333333"/>
<path d="M87.6211 10.3409V24.6591H102.642V10.3409H87.6211ZM100.665 18.2418H95.9096V22.7749H94.3509V18.2418H89.5954V16.756H94.3509V12.2229H95.9096V16.756H100.665V18.2418Z" fill="#29A8DA"/>
</svg>
