<svg width="115" height="35" viewBox="0 0 115 35" fill="none" xmlns="http://www.w3.org/2000/svg">
<rect width="115" height="35" fill="#29A8DA"/>
<path d="M31.7019 12.214L28.9299 22H27.8379L25.3739 13.656L22.8539 22L21.7899 22.014L19.0739 12.214H20.1239L22.3639 20.796L24.8699 12.214H25.9619L28.3979 20.796L30.6519 12.214H31.7019ZM33.691 12.914C33.495 12.914 33.327 12.844 33.187 12.704C33.047 12.564 32.977 12.3913 32.977 12.186C32.977 11.9807 33.047 11.8127 33.187 11.682C33.327 11.542 33.495 11.472 33.691 11.472C33.887 11.472 34.055 11.542 34.195 11.682C34.335 11.8127 34.405 11.9807 34.405 12.186C34.405 12.3913 34.335 12.564 34.195 12.704C34.055 12.844 33.887 12.914 33.691 12.914ZM34.181 14.356V22H33.201V14.356H34.181ZM43.3162 17.786C43.3162 18.122 43.3069 18.3787 43.2882 18.556H36.9462C36.9742 19.1347 37.1142 19.6293 37.3662 20.04C37.6182 20.4507 37.9496 20.7633 38.3602 20.978C38.7709 21.1833 39.2189 21.286 39.7042 21.286C40.3389 21.286 40.8709 21.132 41.3002 20.824C41.7389 20.516 42.0282 20.1007 42.1682 19.578H43.2042C43.0642 20.138 42.8029 20.628 42.4202 21.048C42.0376 21.4587 41.5522 21.7527 40.9642 21.93L40.3622 22.224C39.7742 22.5133 39.4802 22.854 39.4802 23.246C39.4802 23.47 39.5596 23.6427 39.7182 23.764C39.8769 23.8947 40.0869 23.96 40.3482 23.96C40.6282 23.96 40.9269 23.8947 41.2442 23.764V24.45C40.9082 24.5713 40.5722 24.632 40.2362 24.632C39.7882 24.632 39.4102 24.5247 39.1022 24.31C38.8036 24.1047 38.6542 23.7827 38.6542 23.344C38.6542 22.8773 38.8922 22.462 39.3682 22.098C38.6962 22.042 38.1036 21.8507 37.5902 21.524C37.0769 21.188 36.6756 20.7353 36.3862 20.166C36.0969 19.5873 35.9522 18.9247 35.9522 18.178C35.9522 17.3847 36.1109 16.6893 36.4282 16.092C36.7456 15.4947 37.1889 15.0373 37.7582 14.72C38.3276 14.4027 38.9762 14.244 39.7042 14.244C40.4322 14.244 41.0669 14.4027 41.6082 14.72C42.1589 15.0373 42.5789 15.4667 42.8682 16.008C43.1669 16.54 43.3162 17.1327 43.3162 17.786ZM42.3222 17.758C42.3316 17.1887 42.2149 16.7033 41.9722 16.302C41.7389 15.9007 41.4169 15.5973 41.0062 15.392C40.5956 15.1867 40.1476 15.084 39.6622 15.084C38.9342 15.084 38.3136 15.3173 37.8002 15.784C37.2869 16.2507 37.0022 16.9087 36.9462 17.758H42.3222ZM44.6612 18.178C44.6612 17.3847 44.8199 16.694 45.1372 16.106C45.4546 15.5087 45.8932 15.0513 46.4532 14.734C47.0132 14.4073 47.6526 14.244 48.3712 14.244C49.3139 14.244 50.0886 14.4773 50.6952 14.944C51.3112 15.4107 51.7079 16.0453 51.8852 16.848H50.8352C50.7046 16.2973 50.4199 15.868 49.9812 15.56C49.5519 15.2427 49.0152 15.084 48.3712 15.084C47.8579 15.084 47.3959 15.2007 46.9852 15.434C46.5746 15.6673 46.2479 16.0173 46.0052 16.484C45.7719 16.9413 45.6552 17.506 45.6552 18.178C45.6552 18.85 45.7719 19.4193 46.0052 19.886C46.2479 20.3527 46.5746 20.7027 46.9852 20.936C47.3959 21.1693 47.8579 21.286 48.3712 21.286C49.0152 21.286 49.5519 21.132 49.9812 20.824C50.4199 20.5067 50.7046 20.068 50.8352 19.508H51.8852C51.7079 20.292 51.3112 20.922 50.6952 21.398C50.0792 21.874 49.3046 22.112 48.3712 22.112C47.6526 22.112 47.0132 21.9533 46.4532 21.636C45.8932 21.3093 45.4546 20.852 45.1372 20.264C44.8199 19.6667 44.6612 18.9713 44.6612 18.178ZM60.6112 17.786C60.6112 18.122 60.6018 18.3787 60.5832 18.556H54.2412C54.2692 19.1347 54.4092 19.6293 54.6612 20.04C54.9132 20.4507 55.2445 20.7633 55.6552 20.978C56.0658 21.1833 56.5138 21.286 56.9992 21.286C57.6338 21.286 58.1658 21.132 58.5952 20.824C59.0338 20.516 59.3232 20.1007 59.4632 19.578H60.4992C60.3125 20.3247 59.9112 20.936 59.2952 21.412C58.6885 21.8787 57.9232 22.112 56.9992 22.112C56.2805 22.112 55.6365 21.9533 55.0672 21.636C54.4978 21.3093 54.0498 20.852 53.7232 20.264C53.4058 19.6667 53.2472 18.9713 53.2472 18.178C53.2472 17.3847 53.4058 16.6893 53.7232 16.092C54.0405 15.4947 54.4838 15.0373 55.0532 14.72C55.6225 14.4027 56.2712 14.244 56.9992 14.244C57.7272 14.244 58.3618 14.4027 58.9032 14.72C59.4538 15.0373 59.8738 15.4667 60.1632 16.008C60.4618 16.54 60.6112 17.1327 60.6112 17.786ZM59.6172 17.758C59.6265 17.1887 59.5098 16.7033 59.2672 16.302C59.0338 15.9007 58.7118 15.5973 58.3012 15.392C57.8905 15.1867 57.4425 15.084 56.9572 15.084C56.2292 15.084 55.6085 15.3173 55.0952 15.784C54.5818 16.2507 54.2972 16.9087 54.2412 17.758H59.6172ZM62.9641 12.914C62.7681 12.914 62.6001 12.844 62.4601 12.704C62.3201 12.564 62.2501 12.3913 62.2501 12.186C62.2501 11.9807 62.3201 11.8127 62.4601 11.682C62.6001 11.542 62.7681 11.472 62.9641 11.472C63.1601 11.472 63.3235 11.542 63.4541 11.682C63.5941 11.8127 63.6641 11.9807 63.6641 12.186C63.6641 12.3913 63.5941 12.564 63.4541 12.704C63.3235 12.844 63.1601 12.914 62.9641 12.914ZM63.4401 23.806C63.4401 24.422 63.2861 24.8747 62.9781 25.164C62.6701 25.4627 62.2081 25.612 61.5921 25.612H60.9061V24.772H61.4381C61.8021 24.772 62.0635 24.6927 62.2221 24.534C62.3808 24.3847 62.4601 24.128 62.4601 23.764V14.356H63.4401V23.806Z" fill="white"/>
<rect x="0.5" y="0.5" width="114" height="34" stroke="white"/>
<path d="M83.2754 10.3409V24.6591H97.5513V10.3409H83.2754ZM95.6726 18.2418H91.1529V22.7749H89.6715V18.2418H85.1518V16.7559H89.6715V12.2228H91.1529V16.7559H95.6726V18.2418Z" fill="white"/>
</svg>
