<svg width="71" height="15" viewBox="0 0 71 15" fill="none" xmlns="http://www.w3.org/2000/svg">
<path d="M8.07247 4.252C8.07247 4.77467 7.94647 5.26467 7.69447 5.722C7.4518 6.17933 7.06447 6.548 6.53247 6.828C6.0098 7.108 5.34714 7.248 4.54447 7.248H2.90647V11H0.946469V1.228H4.54447C5.30047 1.228 5.94447 1.35867 6.47647 1.62C7.00847 1.88133 7.40514 2.24067 7.66647 2.698C7.93714 3.15533 8.07247 3.67333 8.07247 4.252ZM4.46047 5.666C5.0018 5.666 5.40314 5.54467 5.66447 5.302C5.9258 5.05 6.05647 4.7 6.05647 4.252C6.05647 3.3 5.52447 2.824 4.46047 2.824H2.90647V5.666H4.46047ZM12.908 11.126C12.1614 11.126 11.4894 10.9627 10.892 10.636C10.2947 10.3 9.82338 9.82867 9.47805 9.222C9.14205 8.61533 8.97405 7.91533 8.97405 7.122C8.97405 6.32867 9.14671 5.62867 9.49205 5.022C9.84671 4.41533 10.3274 3.94867 10.934 3.622C11.5407 3.286 12.2174 3.118 12.964 3.118C13.7107 3.118 14.3874 3.286 14.994 3.622C15.6007 3.94867 16.0767 4.41533 16.422 5.022C16.7767 5.62867 16.954 6.32867 16.954 7.122C16.954 7.91533 16.772 8.61533 16.408 9.222C16.0534 9.82867 15.568 10.3 14.952 10.636C14.3454 10.9627 13.664 11.126 12.908 11.126ZM12.908 9.418C13.2627 9.418 13.594 9.334 13.902 9.166C14.2194 8.98867 14.4714 8.72733 14.658 8.382C14.8447 8.03667 14.938 7.61667 14.938 7.122C14.938 6.38467 14.742 5.82 14.35 5.428C13.9674 5.02667 13.496 4.826 12.936 4.826C12.376 4.826 11.9047 5.02667 11.522 5.428C11.1487 5.82 10.962 6.38467 10.962 7.122C10.962 7.85933 11.144 8.42867 11.508 8.83C11.8814 9.222 12.348 9.418 12.908 9.418ZM20.3518 0.64V11H18.3918V0.64H20.3518ZM29.4983 6.954C29.4983 7.234 29.4796 7.486 29.4423 7.71H23.7723C23.8189 8.27 24.0149 8.70867 24.3603 9.026C24.7056 9.34333 25.1303 9.502 25.6343 9.502C26.3623 9.502 26.8803 9.18933 27.1883 8.564H29.3023C29.0783 9.31067 28.6489 9.92667 28.0143 10.412C27.3796 10.888 26.6003 11.126 25.6763 11.126C24.9296 11.126 24.2576 10.9627 23.6603 10.636C23.0723 10.3 22.6103 9.82867 22.2743 9.222C21.9476 8.61533 21.7843 7.91533 21.7843 7.122C21.7843 6.31933 21.9476 5.61467 22.2743 5.008C22.6009 4.40133 23.0583 3.93467 23.6463 3.608C24.2343 3.28133 24.9109 3.118 25.6763 3.118C26.4136 3.118 27.0716 3.27667 27.6503 3.594C28.2383 3.91133 28.6909 4.364 29.0083 4.952C29.3349 5.53067 29.4983 6.198 29.4983 6.954ZM27.4683 6.394C27.4589 5.89 27.2769 5.48867 26.9223 5.19C26.5676 4.882 26.1336 4.728 25.6203 4.728C25.1349 4.728 24.7243 4.87733 24.3883 5.176C24.0616 5.46533 23.8609 5.87133 23.7863 6.394H27.4683ZM30.4249 7.122C30.4249 6.31933 30.5882 5.61933 30.9149 5.022C31.2416 4.41533 31.6942 3.94867 32.2729 3.622C32.8516 3.286 33.5142 3.118 34.2609 3.118C35.2222 3.118 36.0156 3.36067 36.6409 3.846C37.2756 4.322 37.7002 4.994 37.9149 5.862H35.8009C35.6889 5.526 35.4976 5.26467 35.2269 5.078C34.9656 4.882 34.6389 4.784 34.2469 4.784C33.6869 4.784 33.2436 4.98933 32.9169 5.4C32.5902 5.80133 32.4269 6.37533 32.4269 7.122C32.4269 7.85933 32.5902 8.43333 32.9169 8.844C33.2436 9.24533 33.6869 9.446 34.2469 9.446C35.0402 9.446 35.5582 9.09133 35.8009 8.382H37.9149C37.7002 9.222 37.2756 9.88933 36.6409 10.384C36.0062 10.8787 35.2129 11.126 34.2609 11.126C33.5142 11.126 32.8516 10.9627 32.2729 10.636C31.6942 10.3 31.2416 9.83333 30.9149 9.236C30.5882 8.62933 30.4249 7.92467 30.4249 7.122ZM38.8468 7.094C38.8468 6.31 39.0008 5.61467 39.3088 5.008C39.6261 4.40133 40.0508 3.93467 40.5828 3.608C41.1241 3.28133 41.7261 3.118 42.3888 3.118C42.9674 3.118 43.4714 3.23467 43.9008 3.468C44.3394 3.70133 44.6894 3.99533 44.9508 4.35V3.244H46.9248V11H44.9508V9.866C44.6988 10.23 44.3488 10.5333 43.9008 10.776C43.4621 11.0093 42.9534 11.126 42.3748 11.126C41.7214 11.126 41.1241 10.958 40.5828 10.622C40.0508 10.286 39.6261 9.81467 39.3088 9.208C39.0008 8.592 38.8468 7.88733 38.8468 7.094ZM44.9508 7.122C44.9508 6.646 44.8574 6.24 44.6708 5.904C44.4841 5.55867 44.2321 5.29733 43.9148 5.12C43.5974 4.93333 43.2568 4.84 42.8928 4.84C42.5288 4.84 42.1928 4.92867 41.8848 5.106C41.5768 5.28333 41.3248 5.54467 41.1288 5.89C40.9421 6.226 40.8488 6.62733 40.8488 7.094C40.8488 7.56067 40.9421 7.97133 41.1288 8.326C41.3248 8.67133 41.5768 8.93733 41.8848 9.124C42.2021 9.31067 42.5381 9.404 42.8928 9.404C43.2568 9.404 43.5974 9.31533 43.9148 9.138C44.2321 8.95133 44.4841 8.69 44.6708 8.354C44.8574 8.00867 44.9508 7.598 44.9508 7.122ZM58.471 3.132C59.423 3.132 60.1884 3.426 60.767 4.014C61.355 4.59267 61.649 5.40467 61.649 6.45V11H59.689V6.716C59.689 6.10933 59.535 5.64733 59.227 5.33C58.919 5.00333 58.499 4.84 57.967 4.84C57.435 4.84 57.0104 5.00333 56.693 5.33C56.385 5.64733 56.231 6.10933 56.231 6.716V11H54.271V6.716C54.271 6.10933 54.117 5.64733 53.809 5.33C53.501 5.00333 53.081 4.84 52.549 4.84C52.0077 4.84 51.5784 5.00333 51.261 5.33C50.953 5.64733 50.799 6.10933 50.799 6.716V11H48.839V3.244H50.799V4.182C51.051 3.85533 51.373 3.59867 51.765 3.412C52.1664 3.22533 52.605 3.132 53.081 3.132C53.6877 3.132 54.229 3.26267 54.705 3.524C55.181 3.776 55.5497 4.14 55.811 4.616C56.063 4.168 56.427 3.80867 56.903 3.538C57.3884 3.26733 57.911 3.132 58.471 3.132ZM70.929 3.244L66.127 14.668H64.041L65.721 10.804L62.613 3.244H64.811L66.813 8.662L68.843 3.244H70.929Z" fill="white"/>
</svg>
