<svg width="56" height="13" viewBox="0 0 56 13" fill="none" xmlns="http://www.w3.org/2000/svg">
<path d="M9.31716 12H7.35716L2.91916 5.294V12H0.959164V2.214H2.91916L7.35716 8.934V2.214H9.31716V12ZM14.6981 12.126C13.9514 12.126 13.2794 11.9627 12.6821 11.636C12.0848 11.3 11.6134 10.8287 11.2681 10.222C10.9321 9.61533 10.7641 8.91533 10.7641 8.122C10.7641 7.32867 10.9368 6.62867 11.2821 6.022C11.6368 5.41533 12.1174 4.94867 12.7241 4.622C13.3308 4.286 14.0074 4.118 14.7541 4.118C15.5008 4.118 16.1774 4.286 16.7841 4.622C17.3908 4.94867 17.8668 5.41533 18.2121 6.022C18.5668 6.62867 18.7441 7.32867 18.7441 8.122C18.7441 8.91533 18.5621 9.61533 18.1981 10.222C17.8434 10.8287 17.3581 11.3 16.7421 11.636C16.1354 11.9627 15.4541 12.126 14.6981 12.126ZM14.6981 10.418C15.0528 10.418 15.3841 10.334 15.6921 10.166C16.0094 9.98867 16.2614 9.72733 16.4481 9.382C16.6348 9.03667 16.7281 8.61667 16.7281 8.122C16.7281 7.38467 16.5321 6.82 16.1401 6.428C15.7574 6.02667 15.2861 5.826 14.7261 5.826C14.1661 5.826 13.6948 6.02667 13.3121 6.428C12.9388 6.82 12.7521 7.38467 12.7521 8.122C12.7521 8.85933 12.9341 9.42867 13.2981 9.83C13.6714 10.222 14.1381 10.418 14.6981 10.418ZM30.9338 4.244L28.6658 12H26.5518L25.1378 6.582L23.7238 12H21.5958L19.3138 4.244H21.3018L22.6738 10.152L24.1578 4.244H26.2298L27.6858 10.138L29.0578 4.244H30.9338ZM35.4383 12.126C34.6917 12.126 34.0197 11.9627 33.4223 11.636C32.825 11.3 32.3537 10.8287 32.0083 10.222C31.6723 9.61533 31.5043 8.91533 31.5043 8.122C31.5043 7.32867 31.677 6.62867 32.0223 6.022C32.377 5.41533 32.8577 4.94867 33.4643 4.622C34.071 4.286 34.7477 4.118 35.4943 4.118C36.241 4.118 36.9177 4.286 37.5243 4.622C38.131 4.94867 38.607 5.41533 38.9523 6.022C39.307 6.62867 39.4843 7.32867 39.4843 8.122C39.4843 8.91533 39.3023 9.61533 38.9383 10.222C38.5837 10.8287 38.0983 11.3 37.4823 11.636C36.8757 11.9627 36.1943 12.126 35.4383 12.126ZM35.4383 10.418C35.793 10.418 36.1243 10.334 36.4323 10.166C36.7497 9.98867 37.0017 9.72733 37.1883 9.382C37.375 9.03667 37.4683 8.61667 37.4683 8.122C37.4683 7.38467 37.2723 6.82 36.8803 6.428C36.4977 6.02667 36.0263 5.826 35.4663 5.826C34.9063 5.826 34.435 6.02667 34.0523 6.428C33.679 6.82 33.4923 7.38467 33.4923 8.122C33.4923 8.85933 33.6743 9.42867 34.0383 9.83C34.4117 10.222 34.8783 10.418 35.4383 10.418ZM43.8901 12.126C43.2554 12.126 42.6861 12.014 42.1821 11.79C41.6781 11.5567 41.2767 11.244 40.9781 10.852C40.6887 10.46 40.5301 10.026 40.5021 9.55H42.4761C42.5134 9.84867 42.6581 10.096 42.9101 10.292C43.1714 10.488 43.4934 10.586 43.8761 10.586C44.2494 10.586 44.5387 10.5113 44.7441 10.362C44.9587 10.2127 45.0661 10.0213 45.0661 9.788C45.0661 9.536 44.9354 9.34933 44.6741 9.228C44.4221 9.09733 44.0161 8.95733 43.4561 8.808C42.8774 8.668 42.4014 8.52333 42.0281 8.374C41.6641 8.22467 41.3467 7.996 41.0761 7.688C40.8147 7.38 40.6841 6.96467 40.6841 6.442C40.6841 6.01267 40.8054 5.62067 41.0481 5.266C41.3001 4.91133 41.6547 4.63133 42.1121 4.426C42.5787 4.22067 43.1247 4.118 43.7501 4.118C44.6741 4.118 45.4114 4.35133 45.9621 4.818C46.5127 5.27533 46.8161 5.896 46.8721 6.68H44.9961C44.9681 6.372 44.8374 6.12933 44.6041 5.952C44.3801 5.76533 44.0767 5.672 43.6941 5.672C43.3394 5.672 43.0641 5.73733 42.8681 5.868C42.6814 5.99867 42.5881 6.18067 42.5881 6.414C42.5881 6.67533 42.7187 6.876 42.9801 7.016C43.2414 7.14667 43.6474 7.282 44.1981 7.422C44.7581 7.562 45.2201 7.70667 45.5841 7.856C45.9481 8.00533 46.2607 8.23867 46.5221 8.556C46.7927 8.864 46.9327 9.27467 46.9421 9.788C46.9421 10.236 46.8161 10.6373 46.5641 10.992C46.3214 11.3467 45.9667 11.6267 45.5001 11.832C45.0427 12.028 44.5061 12.126 43.8901 12.126ZM45.3321 2.13L42.1121 3.6V2.2L45.3321 0.533999V2.13ZM48.047 8.122C48.047 7.31933 48.2103 6.61933 48.537 6.022C48.8636 5.41533 49.3163 4.94867 49.895 4.622C50.4736 4.286 51.1363 4.118 51.883 4.118C52.8443 4.118 53.6376 4.36067 54.263 4.846C54.8976 5.322 55.3223 5.994 55.537 6.862H53.423C53.311 6.526 53.1196 6.26467 52.849 6.078C52.5876 5.882 52.261 5.784 51.869 5.784C51.309 5.784 50.8656 5.98933 50.539 6.4C50.2123 6.80133 50.049 7.37533 50.049 8.122C50.049 8.85933 50.2123 9.43333 50.539 9.844C50.8656 10.2453 51.309 10.446 51.869 10.446C52.6623 10.446 53.1803 10.0913 53.423 9.382H55.537C55.3223 10.222 54.8976 10.8893 54.263 11.384C53.6283 11.8787 52.835 12.126 51.883 12.126C51.1363 12.126 50.4736 11.9627 49.895 11.636C49.3163 11.3 48.8636 10.8333 48.537 10.236C48.2103 9.62933 48.047 8.92467 48.047 8.122ZM53.311 2.228L50.091 3.698V2.298L53.311 0.631999V2.228Z" fill="white"/>
</svg>
