<svg width="67" height="15" viewBox="0 0 67 15" fill="none" xmlns="http://www.w3.org/2000/svg">
<path d="M7.33712 4.252C7.33712 4.77467 7.21112 5.26467 6.95912 5.722C6.71645 6.17933 6.32912 6.548 5.79712 6.828C5.27445 7.108 4.61178 7.248 3.80912 7.248H2.17112V11H0.211117V1.228H3.80912C4.56512 1.228 5.20912 1.35867 5.74112 1.62C6.27312 1.88133 6.66978 2.24067 6.93112 2.698C7.20178 3.15533 7.33712 3.67333 7.33712 4.252ZM3.72512 5.666C4.26645 5.666 4.66778 5.54467 4.92912 5.302C5.19045 5.05 5.32112 4.7 5.32112 4.252C5.32112 3.3 4.78912 2.824 3.72512 2.824H2.17112V5.666H3.72512ZM10.6887 4.448C10.9407 4.03733 11.2674 3.71533 11.6687 3.482C12.0794 3.24867 12.546 3.132 13.0687 3.132V5.19H12.5507C11.9347 5.19 11.468 5.33467 11.1507 5.624C10.8427 5.91333 10.6887 6.41733 10.6887 7.136V11H8.7287V3.244H10.6887V4.448ZM17.8329 11.126C17.0862 11.126 16.4142 10.9627 15.8169 10.636C15.2195 10.3 14.7482 9.82867 14.4029 9.222C14.0669 8.61533 13.8989 7.91533 13.8989 7.122C13.8989 6.32867 14.0715 5.62867 14.4169 5.022C14.7715 4.41533 15.2522 3.94867 15.8589 3.622C16.4655 3.286 17.1422 3.118 17.8889 3.118C18.6355 3.118 19.3122 3.286 19.9189 3.622C20.5255 3.94867 21.0015 4.41533 21.3469 5.022C21.7015 5.62867 21.8789 6.32867 21.8789 7.122C21.8789 7.91533 21.6969 8.61533 21.3329 9.222C20.9782 9.82867 20.4929 10.3 19.8769 10.636C19.2702 10.9627 18.5889 11.126 17.8329 11.126ZM17.8329 9.418C18.1875 9.418 18.5189 9.334 18.8269 9.166C19.1442 8.98867 19.3962 8.72733 19.5829 8.382C19.7695 8.03667 19.8629 7.61667 19.8629 7.122C19.8629 6.38467 19.6669 5.82 19.2749 5.428C18.8922 5.02667 18.4209 4.826 17.8609 4.826C17.3009 4.826 16.8295 5.02667 16.4469 5.428C16.0735 5.82 15.8869 6.38467 15.8869 7.122C15.8869 7.85933 16.0689 8.42867 16.4329 8.83C16.8062 9.222 17.2729 9.418 17.8329 9.418ZM32.9486 3.132C33.9006 3.132 34.6659 3.426 35.2446 4.014C35.8326 4.59267 36.1266 5.40467 36.1266 6.45V11H34.1666V6.716C34.1666 6.10933 34.0126 5.64733 33.7046 5.33C33.3966 5.00333 32.9766 4.84 32.4446 4.84C31.9126 4.84 31.4879 5.00333 31.1706 5.33C30.8626 5.64733 30.7086 6.10933 30.7086 6.716V11H28.7486V6.716C28.7486 6.10933 28.5946 5.64733 28.2866 5.33C27.9786 5.00333 27.5586 4.84 27.0266 4.84C26.4853 4.84 26.0559 5.00333 25.7386 5.33C25.4306 5.64733 25.2766 6.10933 25.2766 6.716V11H23.3166V3.244H25.2766V4.182C25.5286 3.85533 25.8506 3.59867 26.2426 3.412C26.6439 3.22533 27.0826 3.132 27.5586 3.132C28.1653 3.132 28.7066 3.26267 29.1826 3.524C29.6586 3.776 30.0273 4.14 30.2886 4.616C30.5406 4.168 30.9046 3.80867 31.3806 3.538C31.8659 3.26733 32.3886 3.132 32.9486 3.132ZM41.4305 11.126C40.6838 11.126 40.0118 10.9627 39.4145 10.636C38.8172 10.3 38.3458 9.82867 38.0005 9.222C37.6645 8.61533 37.4965 7.91533 37.4965 7.122C37.4965 6.32867 37.6692 5.62867 38.0145 5.022C38.3692 4.41533 38.8498 3.94867 39.4565 3.622C40.0632 3.286 40.7398 3.118 41.4865 3.118C42.2332 3.118 42.9098 3.286 43.5165 3.622C44.1232 3.94867 44.5992 4.41533 44.9445 5.022C45.2992 5.62867 45.4765 6.32867 45.4765 7.122C45.4765 7.91533 45.2945 8.61533 44.9305 9.222C44.5758 9.82867 44.0905 10.3 43.4745 10.636C42.8678 10.9627 42.1865 11.126 41.4305 11.126ZM41.4305 9.418C41.7852 9.418 42.1165 9.334 42.4245 9.166C42.7418 8.98867 42.9938 8.72733 43.1805 8.382C43.3672 8.03667 43.4605 7.61667 43.4605 7.122C43.4605 6.38467 43.2645 5.82 42.8725 5.428C42.4898 5.02667 42.0185 4.826 41.4585 4.826C40.8985 4.826 40.4272 5.02667 40.0445 5.428C39.6712 5.82 39.4845 6.38467 39.4845 7.122C39.4845 7.85933 39.6665 8.42867 40.0305 8.83C40.4038 9.222 40.8705 9.418 41.4305 9.418ZM46.4102 7.122C46.4102 6.31933 46.5736 5.61933 46.9002 5.022C47.2269 4.41533 47.6796 3.94867 48.2582 3.622C48.8369 3.286 49.4996 3.118 50.2462 3.118C51.2076 3.118 52.0009 3.36067 52.6262 3.846C53.2609 4.322 53.6856 4.994 53.9002 5.862H51.7862C51.6742 5.526 51.4829 5.26467 51.2122 5.078C50.9509 4.882 50.6242 4.784 50.2322 4.784C49.6722 4.784 49.2289 4.98933 48.9022 5.4C48.5756 5.80133 48.4122 6.37533 48.4122 7.122C48.4122 7.85933 48.5756 8.43333 48.9022 8.844C49.2289 9.24533 49.6722 9.446 50.2322 9.446C51.0256 9.446 51.5436 9.09133 51.7862 8.382H53.9002C53.6856 9.222 53.2609 9.88933 52.6262 10.384C51.9916 10.8787 51.1982 11.126 50.2462 11.126C49.4996 11.126 48.8369 10.9627 48.2582 10.636C47.6796 10.3 47.2269 9.83333 46.9002 9.236C46.5736 8.62933 46.4102 7.92467 46.4102 7.122ZM56.3301 2.32C55.9755 2.32 55.6815 2.21267 55.4481 1.998C55.2241 1.774 55.1121 1.49867 55.1121 1.172C55.1121 0.845333 55.2241 0.574666 55.4481 0.359999C55.6815 0.135999 55.9755 0.0239995 56.3301 0.0239995C56.6755 0.0239995 56.9601 0.135999 57.1841 0.359999C57.4081 0.574666 57.5201 0.845333 57.5201 1.172C57.5201 1.49867 57.4081 1.774 57.1841 1.998C56.9601 2.21267 56.6755 2.32 56.3301 2.32ZM57.2961 12.274C57.2961 13.1327 57.0815 13.7487 56.6521 14.122C56.2321 14.5047 55.6255 14.696 54.8321 14.696H53.9641V13.03H54.5241C54.8228 13.03 55.0328 12.9693 55.1541 12.848C55.2755 12.736 55.3361 12.5493 55.3361 12.288V3.244H57.2961V12.274ZM58.7286 7.094C58.7286 6.31 58.8826 5.61467 59.1906 5.008C59.5079 4.40133 59.9326 3.93467 60.4646 3.608C61.0059 3.28133 61.6079 3.118 62.2706 3.118C62.8493 3.118 63.3533 3.23467 63.7826 3.468C64.2213 3.70133 64.5713 3.99533 64.8326 4.35V3.244H66.8066V11H64.8326V9.866C64.5806 10.23 64.2306 10.5333 63.7826 10.776C63.3439 11.0093 62.8353 11.126 62.2566 11.126C61.6033 11.126 61.0059 10.958 60.4646 10.622C59.9326 10.286 59.5079 9.81467 59.1906 9.208C58.8826 8.592 58.7286 7.88733 58.7286 7.094ZM64.8326 7.122C64.8326 6.646 64.7393 6.24 64.5526 5.904C64.3659 5.55867 64.1139 5.29733 63.7966 5.12C63.4793 4.93333 63.1386 4.84 62.7746 4.84C62.4106 4.84 62.0746 4.92867 61.7666 5.106C61.4586 5.28333 61.2066 5.54467 61.0106 5.89C60.8239 6.226 60.7306 6.62733 60.7306 7.094C60.7306 7.56067 60.8239 7.97133 61.0106 8.326C61.2066 8.67133 61.4586 8.93733 61.7666 9.124C62.0839 9.31067 62.4199 9.404 62.7746 9.404C63.1386 9.404 63.4793 9.31533 63.7966 9.138C64.1139 8.95133 64.3659 8.69 64.5526 8.354C64.7393 8.00867 64.8326 7.598 64.8326 7.122Z" fill="white"/>
</svg>
