<svg width="8" height="16" viewBox="0 0 8 16" fill="none" xmlns="http://www.w3.org/2000/svg">
<path d="M7.69874 0.00332907L5.77991 0C3.62416 0 2.23102 1.54552 2.23102 3.93762V5.75313H0.301719C0.135004 5.75313 0 5.89927 0 6.07954V8.71001C0 8.89028 0.135158 9.03626 0.301719 9.03626H2.23102V15.6738C2.23102 15.854 2.36603 16 2.53274 16H5.04993C5.21665 16 5.35165 15.8539 5.35165 15.6738V9.03626H7.60746C7.77417 9.03626 7.90918 8.89028 7.90918 8.71001L7.9101 6.07954C7.9101 5.99299 7.87824 5.91009 7.82174 5.84884C7.76524 5.78759 7.68828 5.75313 7.60823 5.75313H5.35165V4.2141C5.35165 3.47438 5.51467 3.09886 6.40582 3.09886L7.69844 3.09836C7.865 3.09836 8 2.95222 8 2.77211V0.329578C8 0.149642 7.86515 0.00366197 7.69874 0.00332907Z" fill="white"/>
</svg>
