<svg width="15" height="15" viewBox="0 0 15 15" fill="none" xmlns="http://www.w3.org/2000/svg">
<path fill-rule="evenodd" clip-rule="evenodd" d="M1.76771 0.478307C1.93176 0.314507 2.12874 0.187442 2.34561 0.10553C2.56248 0.0236186 2.79428 -0.0112683 3.02565 0.00318128C3.25702 0.0176309 3.48268 0.0810871 3.68767 0.189345C3.89266 0.297602 4.07231 0.448189 4.2147 0.631126L5.89759 2.7931C6.20604 3.18968 6.31479 3.70627 6.19291 4.19379L5.68008 6.24701C5.65356 6.35335 5.65499 6.46475 5.68424 6.57038C5.71348 6.676 5.76953 6.77228 5.84696 6.84985L8.1505 9.15339C8.22817 9.23098 8.3246 9.28713 8.43041 9.31637C8.53622 9.34562 8.6478 9.34696 8.75428 9.32027L10.8066 8.80744C11.0471 8.74728 11.2983 8.74261 11.5409 8.79378C11.7836 8.84494 12.0114 8.9506 12.2073 9.10276L14.3692 10.7847C15.1465 11.3894 15.2177 12.5379 14.522 13.2326L13.5526 14.2021C12.8588 14.8958 11.8219 15.2005 10.8553 14.8602C8.38131 13.9897 6.13504 12.5734 4.28314 10.7163C2.42614 8.86464 1.00981 6.61871 0.139198 4.14504C-0.200193 3.17937 0.104509 2.14151 0.798291 1.44773L1.76771 0.478307Z" fill="white"/>
</svg>
