<svg width="14" height="15" viewBox="0 0 14 15" fill="none" xmlns="http://www.w3.org/2000/svg">
<path d="M5.49982 0C5.36721 0 5.24002 0.049386 5.14625 0.137294C5.05248 0.225201 4.99979 0.34443 4.99979 0.46875C4.99979 0.59307 5.05248 0.712299 5.14625 0.800206C5.24002 0.888114 5.36721 0.9375 5.49982 0.9375H5.99985V1.94062C4.24821 2.17796 2.65744 3.02838 1.54762 4.32078C0.437788 5.61318 -0.108743 7.25165 0.0179829 8.90653C0.144709 10.5614 0.935289 12.1099 2.23066 13.2404C3.52603 14.371 5.23006 14.9996 6.9999 15C8.34187 15 9.65555 14.6383 10.7845 13.9581C11.9134 13.278 12.81 12.3079 13.3674 11.1636C13.9249 10.0192 14.1197 8.74875 13.9287 7.50352C13.7377 6.25829 13.169 5.09076 12.2902 4.14C12.2946 4.13632 12.2989 4.13257 12.3032 4.12875L12.6572 3.79688L13.0102 4.12875C13.0563 4.17352 13.1115 4.20923 13.1725 4.2338C13.2335 4.25836 13.2991 4.2713 13.3655 4.27184C13.4319 4.27238 13.4978 4.26052 13.5592 4.23695C13.6207 4.21338 13.6765 4.17857 13.7234 4.13456C13.7704 4.09055 13.8075 4.03821 13.8327 3.9806C13.8578 3.923 13.8705 3.86127 13.8699 3.79903C13.8693 3.73679 13.8555 3.67528 13.8293 3.61809C13.8031 3.5609 13.765 3.50918 13.7172 3.46594L12.3032 2.13937C12.2571 2.0946 12.2019 2.05889 12.1409 2.03433C12.0799 2.00976 12.0143 1.99683 11.9479 1.99629C11.8815 1.99575 11.8156 2.00761 11.7542 2.03118C11.6927 2.05475 11.6369 2.08955 11.5899 2.13356C11.543 2.17758 11.5059 2.22991 11.4807 2.28752C11.4556 2.34513 11.4429 2.40685 11.4435 2.46909C11.4441 2.53133 11.4579 2.59284 11.4841 2.65003C11.5103 2.70722 11.5484 2.75895 11.5961 2.80219L11.9502 3.13406L11.5961 3.46594C11.5921 3.46964 11.5881 3.47339 11.5841 3.47719C10.5718 2.65291 9.32733 2.11974 7.99995 1.94156V0.9375H8.49998C8.63259 0.9375 8.75978 0.888114 8.85355 0.800206C8.94732 0.712299 9 0.59307 9 0.46875C9 0.34443 8.94732 0.225201 8.85355 0.137294C8.75978 0.049386 8.63259 0 8.49998 0H5.49982ZM7.49993 5.25V8.4375C7.49993 8.56182 7.44724 8.68105 7.35347 8.76896C7.2597 8.85686 7.13251 8.90625 6.9999 8.90625H3.49972C3.3671 8.90625 3.23992 8.85686 3.14614 8.76896C3.05237 8.68105 2.99969 8.56182 2.99969 8.4375C2.99969 8.31318 3.05237 8.19395 3.14614 8.10604C3.23992 8.01814 3.3671 7.96875 3.49972 7.96875H6.49987V5.25C6.49987 5.12568 6.55255 5.00645 6.64633 4.91854C6.7401 4.83064 6.86728 4.78125 6.9999 4.78125C7.13251 4.78125 7.2597 4.83064 7.35347 4.91854C7.44724 5.00645 7.49993 5.12568 7.49993 5.25Z" fill="white"/>
</svg>
