<svg width="35" height="21" viewBox="0 0 35 21" fill="none" xmlns="http://www.w3.org/2000/svg">
<path id="Vector" d="M5 1.5V4.5H2V1.5H5ZM6.5 19.5V16.5C6.5 16.1022 6.34196 15.7206 6.06066 15.4393C5.77936 15.158 5.39782 15 5 15H2C1.60218 15 1.22064 15.158 0.93934 15.4393C0.658035 15.7206 0.5 16.1022 0.5 16.5V19.5C0.5 19.8978 0.658035 20.2794 0.93934 20.5607C1.22064 20.842 1.60218 21 2 21H5C5.39782 21 5.77936 20.842 6.06066 20.5607C6.34196 20.2794 6.5 19.8978 6.5 19.5ZM6.5 12V9C6.5 8.60217 6.34196 8.22064 6.06066 7.93934C5.77936 7.65804 5.39782 7.5 5 7.5H2C1.60218 7.5 1.22064 7.65804 0.93934 7.93934C0.658035 8.22064 0.5 8.60217 0.5 9V12C0.5 12.3978 0.658035 12.7794 0.93934 13.0607C1.22064 13.342 1.60218 13.5 2 13.5H5C5.39782 13.5 5.77936 13.342 6.06066 13.0607C6.34196 12.7794 6.5 12.3978 6.5 12ZM6.5 4.5V1.5C6.5 1.10218 6.34196 0.720644 6.06066 0.43934C5.77936 0.158035 5.39782 0 5 0H2C1.60218 0 1.22064 0.158035 0.93934 0.43934C0.658035 0.720644 0.5 1.10218 0.5 1.5V4.5C0.5 4.89782 0.658035 5.27936 0.93934 5.56066C1.22064 5.84196 1.60218 6 2 6H5C5.39782 6 5.77936 5.84196 6.06066 5.56066C6.34196 5.27936 6.5 4.89782 6.5 4.5ZM35 19.5V16.5C35 16.1022 34.842 15.7206 34.5607 15.4393C34.2794 15.158 33.8978 15 33.5 15H9.5C9.10217 15 8.72064 15.158 8.43934 15.4393C8.15804 15.7206 8 16.1022 8 16.5V19.5C8 19.8978 8.15804 20.2794 8.43934 20.5607C8.72064 20.842 9.10217 21 9.5 21H33.5C33.8978 21 34.2794 20.842 34.5607 20.5607C34.842 20.2794 35 19.8978 35 19.5ZM35 12V9C35 8.60217 34.842 8.22064 34.5607 7.93934C34.2794 7.65804 33.8978 7.5 33.5 7.5H9.5C9.10217 7.5 8.72064 7.65804 8.43934 7.93934C8.15804 8.22064 8 8.60217 8 9V12C8 12.3978 8.15804 12.7794 8.43934 13.0607C8.72064 13.342 9.10217 13.5 9.5 13.5H33.5C33.8978 13.5 34.2794 13.342 34.5607 13.0607C34.842 12.7794 35 12.3978 35 12ZM35 4.5V1.5C35 1.10218 34.842 0.720644 34.5607 0.43934C34.2794 0.158035 33.8978 0 33.5 0H9.5C9.10217 0 8.72064 0.158035 8.43934 0.43934C8.15804 0.720644 8 1.10218 8 1.5V4.5C8 4.89782 8.15804 5.27936 8.43934 5.56066C8.72064 5.84196 9.10217 6 9.5 6H33.5C33.8978 6 34.2794 5.84196 34.5607 5.56066C34.842 5.27936 35 4.89782 35 4.5ZM33.5 1.5V4.5H9.5V1.5H33.5ZM5 9V12H2V9H5ZM33.5 9V12H9.5V9H33.5ZM5 16.5V19.5H2V16.5H5ZM33.5 16.5V19.5H9.5V16.5H33.5Z" fill="#8A8A8A"/>
</svg>
