<svg width="31" height="30" viewBox="0 0 31 30" fill="none" xmlns="http://www.w3.org/2000/svg">
<path id="Union" fill-rule="evenodd" clip-rule="evenodd" d="M0 30V0H30.3094V30H0ZM6.26293 15C6.26293 19.8528 10.2518 23.801 15.1547 23.801C20.0576 23.801 24.0465 19.8528 24.0465 15C24.0465 10.1472 20.0576 6.19895 15.1547 6.19895C10.2518 6.19895 6.26293 10.1472 6.26293 15ZM18.9554 13.6462C19.2554 13.4089 19.3049 12.9757 19.0652 12.6788C18.8255 12.3826 18.3886 12.3329 18.0878 12.5709L15.8007 14.3793L15.5873 8.29512C15.5742 7.91555 15.2781 7.61477 14.8682 7.63084C14.4848 7.64387 14.184 7.96298 14.1979 8.34256L14.4592 15.7951C14.4677 16.0553 14.6239 16.2872 14.8636 16.3967C14.9564 16.4387 15.0554 16.4594 15.1535 16.4594C15.309 16.4594 15.462 16.4081 15.5881 16.3086L18.9554 13.6462Z" fill="#29A8DA"/>
</svg>
