<svg width="31" height="30" viewBox="0 0 31 30" fill="none" xmlns="http://www.w3.org/2000/svg">
<path id="Union" fill-rule="evenodd" clip-rule="evenodd" d="M0 30V0H30.3094V30H0ZM20.7256 19.8383C21.9828 19.8505 23.1109 19.0729 23.5354 17.9005C23.997 16.5788 24.1346 15.1668 23.9352 13.7824C23.2695 8.98084 18.7972 5.62268 13.9462 6.28165C9.09591 6.94057 5.70311 11.3663 6.36806 16.1678C6.9093 20.0893 10.0191 23.1765 13.9795 23.7245C14.3738 23.775 14.7704 23.801 15.1686 23.801C16.7753 23.804 18.3519 23.3701 19.7266 22.5467C20.1326 22.3048 20.2632 21.7829 20.0189 21.3811C19.7746 20.9793 19.2473 20.85 18.8421 21.0918C15.457 23.1031 11.0668 22.0171 9.03483 18.6673C7.00364 15.3168 8.10002 10.9714 11.4851 8.9602C12.8715 8.13674 14.4998 7.8023 16.1034 8.01277C20.0166 8.52779 22.7669 12.0849 22.2465 15.9582C22.1831 16.4304 22.0718 16.8949 21.914 17.3449C21.7292 17.8331 21.2522 18.1523 20.7256 18.14C20.0197 18.1393 19.4483 17.5737 19.4475 16.8757V11.6319C19.4475 11.1628 19.0625 10.7831 18.5893 10.7831C18.1161 10.7831 17.7318 11.1628 17.7318 11.6319V11.6395C15.8413 10.2276 13.1521 10.5995 11.7256 12.4706C10.2982 14.3418 10.674 17.0036 12.5645 18.4155C14.2137 19.6477 16.5163 19.5405 18.0411 18.1615C18.5367 19.1831 19.5797 19.8352 20.7256 19.8383ZM15.1586 17.5744C16.579 17.5729 17.7302 16.4334 17.7318 15.0275C17.7318 13.6209 16.5797 12.4806 15.1586 12.4806C13.7375 12.4806 12.5853 13.6209 12.5853 15.0275C12.5853 16.4342 13.7375 17.5744 15.1586 17.5744Z" fill="#29A8DA"/>
</svg>
