<svg width="30" height="30" viewBox="0 0 30 30" fill="none" xmlns="http://www.w3.org/2000/svg">
<g id="_&#196;&#144;&#203;&#135;&#196;&#144;&#194;&#187;&#196;&#144;&#196;&#190;&#196;&#144;&#196;&#133;_1" clip-path="url(#clip0_674_645)">
<path id="Vector" d="M18.6673 12.7997C18.6673 14.8217 17.0219 16.4663 15 16.4663C12.978 16.4663 11.3334 14.8217 11.3334 12.7997C11.3334 10.7778 12.978 9.13239 15 9.13239C17.0219 9.13239 18.6673 10.7778 18.6673 12.7997Z" fill="#29A8DA"/>
<path id="Vector_2" d="M0 0V30H30V0H0ZM15.3666 23.6625C15.2617 23.7543 15.1309 23.801 15 23.801C14.8691 23.801 14.739 23.7543 14.6342 23.6617C14.3801 23.436 8.39923 18.0566 8.39923 12.8472C8.39923 9.18061 11.361 6.19898 15 6.19898C18.639 6.19898 21.6008 9.18061 21.6008 12.8472C21.6008 18.0566 15.6207 23.436 15.3666 23.6625Z" fill="#29A8DA"/>
</g>
<defs>
<clipPath id="clip0_674_645">
<rect width="30" height="30" fill="white"/>
</clipPath>
</defs>
</svg>
