<svg width="15" height="15" viewBox="0 0 15 15" fill="none" xmlns="http://www.w3.org/2000/svg">
<path id="Vector" d="M7.50015 15C11.6356 15 14.9997 11.6354 14.9997 7.49985C14.9997 3.36434 11.6356 0 7.50015 0C3.36463 0 0 3.36436 0 7.49985C0 11.6353 3.36463 15 7.50015 15ZM7.25845 1.22016C7.60435 1.20671 7.85405 1.46241 7.86495 1.786L8.04536 6.97069L9.97424 5.42982C10.2279 5.22709 10.5968 5.26919 10.7984 5.52202C11.0005 5.77515 10.9593 6.14399 10.7062 6.34614L7.86554 8.61519C7.7596 8.69994 7.63017 8.74348 7.49959 8.74348C7.41653 8.74348 7.33292 8.72572 7.25446 8.68992C7.05287 8.59714 6.92115 8.399 6.91371 8.17734L6.69322 1.82663C6.68174 1.50308 6.93489 1.23132 7.25845 1.22016Z" fill="#333333"/>
</svg>
