<svg width="15" height="15" viewBox="0 0 15 15" fill="none" xmlns="http://www.w3.org/2000/svg">
<path id="Vector" d="M14.9247 6.46177C14.6544 4.49682 13.6127 2.71945 12.0286 1.52066C10.4446 0.321861 8.44799 -0.200157 6.47808 0.0694389C4.50817 0.339035 2.72631 1.37816 1.52449 2.95822C0.322674 4.53828 -0.200662 6.52985 0.0696141 8.49479C0.292286 10.1211 1.04154 11.6304 2.20335 12.7928C3.36515 13.9553 4.87589 14.7073 6.50564 14.9344C6.83912 14.978 7.17509 14.9999 7.51142 15C8.87027 15.0022 10.2037 14.6323 11.3663 13.9307C11.4479 13.8816 11.519 13.8171 11.5756 13.7406C11.6321 13.6642 11.6731 13.5774 11.696 13.4851C11.719 13.3929 11.7235 13.2971 11.7093 13.2031C11.6951 13.1092 11.6625 13.0189 11.6134 12.9375C11.5642 12.8562 11.4995 12.7852 11.4228 12.7288C11.3462 12.6723 11.2592 12.6315 11.1667 12.6086C10.98 12.5624 10.7825 12.5921 10.6177 12.6911C9.79021 13.1865 8.85578 13.4771 7.8926 13.5385C6.92942 13.5999 5.96551 13.4304 5.08149 13.044C4.19746 12.6577 3.41904 12.0658 2.81134 11.3179C2.20364 10.57 1.78432 9.68779 1.58847 8.74511C1.39262 7.80242 1.42593 6.82666 1.68561 5.89945C1.9453 4.97224 2.4238 4.12053 3.0811 3.41559C3.7384 2.71064 4.55538 2.17295 5.4637 1.84749C6.37202 1.52203 7.34526 1.41827 8.30202 1.54489C9.1907 1.66275 10.042 1.97632 10.7941 2.46288C11.5463 2.94944 12.1806 3.5968 12.6509 4.35807C13.1213 5.11933 13.416 5.97543 13.5137 6.86435C13.6114 7.75326 13.5097 8.65272 13.2158 9.49756C13.1396 9.70071 13.0018 9.87516 12.8217 9.99668C12.6416 10.1182 12.428 10.1808 12.2105 10.1757C11.924 10.1753 11.6494 10.0616 11.4468 9.85955C11.2442 9.65747 11.1302 9.3835 11.1298 9.09771V4.62891C11.1298 4.43703 11.0534 4.253 10.9174 4.11732C10.7813 3.98164 10.5969 3.90542 10.4045 3.90542C10.2121 3.90542 10.0276 3.98164 9.89161 4.11732C9.75559 4.253 9.67917 4.43703 9.67917 4.62891V4.63566C9.1293 4.2217 8.47261 3.97252 7.78594 3.91728C7.09927 3.86204 6.41103 4.00303 5.80177 4.32375C5.1925 4.64447 4.68742 5.13165 4.34563 5.72828C4.00384 6.32491 3.83948 7.0063 3.87179 7.69271C3.9041 8.37912 4.13174 9.04215 4.52806 9.60421C4.92439 10.1663 5.47301 10.6041 6.10972 10.8665C6.74643 11.1288 7.44488 11.2049 8.12335 11.0857C8.80181 10.9666 9.43221 10.6571 9.94077 10.1936C10.1462 10.6205 10.4682 10.981 10.8696 11.2337C11.2711 11.4865 11.7358 11.6213 12.2105 11.6227C12.7295 11.6277 13.2372 11.4714 13.663 11.1754C14.0888 10.8794 14.4116 10.4586 14.5867 9.97121C14.9776 8.84486 15.0935 7.64175 14.9247 6.46177ZM7.5032 9.69339C7.07284 9.69339 6.65213 9.56609 6.2943 9.32759C5.93646 9.0891 5.65756 8.75011 5.49287 8.35351C5.32818 7.9569 5.28508 7.52049 5.36904 7.09946C5.453 6.67842 5.66025 6.29168 5.96456 5.98813C6.26887 5.68458 6.65659 5.47786 7.07869 5.39411C7.50079 5.31036 7.9383 5.35335 8.33591 5.51763C8.73351 5.68191 9.07335 5.9601 9.31245 6.31704C9.55155 6.67397 9.67917 7.09362 9.67917 7.5229C9.67853 8.09835 9.44907 8.65005 9.04114 9.05696C8.6332 9.46387 8.08011 9.69275 7.5032 9.69339Z" fill="#333333"/>
</svg>
