<svg width="7" height="14" viewBox="0 0 7 14" fill="none" xmlns="http://www.w3.org/2000/svg">
<path id="Vector" d="M6.7364 0.00291293L5.05742 0C3.17114 0 1.95214 1.35233 1.95214 3.44542V5.03399H0.264004C0.118128 5.03399 0 5.16187 0 5.3196V7.62126C0 7.77899 0.118263 7.90672 0.264004 7.90672H1.95214V13.7145C1.95214 13.8723 2.07027 14 2.21615 14H4.41869C4.56457 14 4.6827 13.8721 4.6827 13.7145V7.90672H6.65653C6.8024 7.90672 6.92053 7.77899 6.92053 7.62126L6.92134 5.3196C6.92134 5.24386 6.89346 5.17133 6.84402 5.11773C6.79459 5.06414 6.72724 5.03399 6.6572 5.03399H4.6827V3.68734C4.6827 3.04008 4.82534 2.7115 5.60509 2.7115L6.73613 2.71107C6.88187 2.71107 7 2.58319 7 2.4256V0.288381C7 0.130936 6.88201 0.00320423 6.7364 0.00291293Z" fill="#F0F5F9"/>
</svg>
