<svg width="12" height="15" viewBox="0 0 12 15" fill="none" xmlns="http://www.w3.org/2000/svg">
<path id="Vector" d="M5.76923 15C5.76923 15 11.5385 9.66938 11.5385 5.625C11.5385 4.13316 10.9306 2.70242 9.84869 1.64752C8.76675 0.592632 7.29933 0 5.76923 0C4.23914 0 2.77171 0.592632 1.68977 1.64752C0.607828 2.70242 2.28002e-08 4.13316 0 5.625C0 9.66938 5.76923 15 5.76923 15ZM5.76923 8.4375C5.00418 8.4375 4.27047 8.14118 3.7295 7.61374C3.18853 7.08629 2.88462 6.37092 2.88462 5.625C2.88462 4.87908 3.18853 4.16371 3.7295 3.63626C4.27047 3.10882 5.00418 2.8125 5.76923 2.8125C6.53428 2.8125 7.26799 3.10882 7.80896 3.63626C8.34993 4.16371 8.65385 4.87908 8.65385 5.625C8.65385 6.37092 8.34993 7.08629 7.80896 7.61374C7.26799 8.14118 6.53428 8.4375 5.76923 8.4375Z" fill="#F0F5F9"/>
</svg>
