<svg width="5" height="10" viewBox="0 0 5 10" fill="none" xmlns="http://www.w3.org/2000/svg">
<rect width="5" height="10" fill="#1E1E1E"/>
<g id="4.  kategorie" clip-path="url(#clip0_0_1)">
<rect width="1920" height="3108" transform="translate(-233 -234)" fill="white"/>
<g id="Group 37388">
<path id="Vector" d="M4.7721 5.64876L1.10814 9.78495C0.677051 10.2731 2.40357e-07 9.87637 2.07974e-07 9.13555L-1.53623e-07 0.863165C-0.000110325 0.697369 0.0368182 0.535045 0.106363 0.395633C0.175908 0.256222 0.275122 0.145633 0.392123 0.0771084C0.509124 0.00858305 0.638952 -0.0149718 0.766061 0.00926396C0.893169 0.0334997 1.01217 0.104498 1.10881 0.213757L4.77143 4.34995C4.84322 4.4309 4.90076 4.53073 4.94018 4.64273C4.9796 4.75474 5 4.87634 5 4.99936C5 5.12237 4.9796 5.24397 4.94018 5.35598C4.90076 5.46798 4.84322 5.56781 4.77143 5.64876L4.7721 5.64876Z" fill="#8A8A8A"/>
</g>
</g>
<defs>
<clipPath id="clip0_0_1">
<rect width="1920" height="3108" fill="white" transform="translate(-233 -234)"/>
</clipPath>
</defs>
</svg>
