<svg width="356" height="61" viewBox="0 0 356 61" fill="none" xmlns="http://www.w3.org/2000/svg">
<g clip-path="url(#clip0_295_1895)">
<path d="M77.1719 32.3062V1.40384H85.7357C87.4012 1.40384 88.9176 1.62738 90.285 2.08341C91.6524 2.53943 92.8182 3.18323 93.7736 4.03269C94.7291 4.88214 95.4741 5.92832 96.0001 7.17121C96.526 8.4141 96.789 9.81794 96.789 11.3648C96.789 12.6077 96.6049 13.8417 96.2455 15.0756C95.8861 16.3096 95.2988 17.4094 94.4836 18.384C93.6685 19.3587 92.6078 20.1545 91.3018 20.7625C89.9957 21.3706 88.3917 21.6746 86.4808 21.6746H82.2383V32.3152H77.1719V32.3062ZM82.2383 16.7924H86.3142C87.3661 16.7924 88.2426 16.6047 88.9351 16.2381C89.6276 15.8714 90.1798 15.4154 90.6005 14.861C91.0125 14.3067 91.3105 13.7344 91.4771 13.1264C91.6436 12.5183 91.7225 11.9729 91.7225 11.49C91.7225 11.034 91.6436 10.5064 91.4946 9.89841C91.3456 9.29038 91.0651 8.71812 90.6619 8.18162C90.2587 7.64512 89.7152 7.18909 89.0228 6.82248C88.3303 6.45588 87.445 6.2681 86.3668 6.2681H82.2558V16.7835L82.2383 16.7924Z" fill="#1A1A1A"/>
<path d="M104.52 32.3062V1.40384H113.083C114.749 1.40384 116.265 1.62738 117.633 2.08341C119 2.53943 120.166 3.18323 121.121 4.03269C122.077 4.88214 122.822 5.92832 123.348 7.17121C123.874 8.4141 124.137 9.81794 124.137 11.3648C124.137 12.2143 124.058 13.0638 123.891 13.9043C123.725 14.7537 123.462 15.5764 123.102 16.3632C122.743 17.159 122.27 17.8833 121.691 18.545C121.113 19.2067 120.42 19.7789 119.614 20.2618C120.227 21.2543 120.815 22.22 121.402 23.1678C121.98 24.1157 122.576 25.0724 123.172 26.0292C123.768 26.9949 124.382 27.9784 125.022 28.9978C125.662 30.0171 126.354 31.117 127.099 32.3062H120.99C119.745 30.3301 118.562 28.4524 117.457 26.6909C116.344 24.9204 115.284 23.2483 114.258 21.6656H109.603V32.3062H104.537H104.52ZM109.586 16.7924H113.662C114.714 16.7924 115.59 16.6047 116.283 16.2381C116.975 15.8714 117.527 15.4244 117.948 14.9057C118.36 14.3871 118.658 13.8149 118.825 13.2068C118.991 12.5988 119.07 12.0444 119.07 11.5347C119.07 11.0519 118.991 10.5064 118.842 9.89841C118.693 9.29038 118.413 8.71812 118.01 8.18162C117.606 7.64512 117.063 7.18909 116.37 6.82248C115.678 6.45588 114.793 6.2681 113.714 6.2681H109.603V16.7835L109.586 16.7924Z" fill="#1A1A1A"/>
<path d="M131.578 16.9176C131.578 14.7716 131.99 12.7329 132.805 10.8105C133.62 8.88801 134.734 7.20698 136.127 5.76737C137.53 4.32776 139.16 3.18323 141.036 2.33377C142.903 1.48431 144.91 1.06406 147.04 1.06406C149.17 1.06406 151.143 1.48431 153.027 2.33377C154.912 3.18323 156.56 4.32776 157.971 5.76737C159.382 7.20698 160.495 8.88801 161.319 10.8105C162.134 12.7329 162.546 14.7716 162.546 16.9176C162.546 19.0636 162.134 21.1381 161.319 23.0427C160.504 24.9472 159.391 26.6193 157.971 28.05C156.56 29.4807 154.912 30.5984 153.027 31.421C151.143 32.2436 149.144 32.6549 147.04 32.6549C144.937 32.6549 142.903 32.2436 141.036 31.421C139.169 30.5984 137.53 29.4807 136.127 28.05C134.725 26.6193 133.62 24.9562 132.805 23.0427C131.99 21.1381 131.578 19.0904 131.578 16.9176ZM136.688 16.9176C136.688 18.4198 136.96 19.8237 137.495 21.1381C138.038 22.4525 138.783 23.597 139.739 24.5717C140.694 25.5463 141.799 26.3153 143.061 26.8786C144.323 27.442 145.682 27.7281 147.154 27.7281C148.627 27.7281 149.907 27.442 151.169 26.8786C152.431 26.3153 153.527 25.5463 154.456 24.5717C155.385 23.597 156.121 22.4525 156.656 21.1381C157.2 19.8237 157.462 18.4198 157.462 16.9176C157.462 15.4154 157.182 14.0116 156.63 12.6972C156.078 11.3827 155.324 10.2293 154.386 9.24568C153.448 8.25315 152.343 7.47523 151.081 6.9119C149.819 6.34858 148.469 6.06244 147.032 6.06244C145.594 6.06244 144.244 6.34858 142.982 6.9119C141.72 7.47523 140.624 8.25315 139.695 9.24568C138.766 10.2382 138.029 11.3827 137.495 12.6972C136.951 14.0116 136.688 15.4154 136.688 16.9176Z" fill="#1A1A1A"/>
<path d="M170.646 0.0447083C170.787 0.241425 171.093 0.688508 171.558 1.37702C172.031 2.06552 172.619 2.91498 173.32 3.91645C174.03 4.91791 174.819 6.02668 175.687 7.24275C176.563 8.45881 177.448 9.69276 178.343 10.9535C179.245 12.2143 180.122 13.4393 180.981 14.6375C181.84 15.8357 182.611 16.9355 183.304 17.9191C183.996 18.9116 184.583 19.7342 185.074 20.3959C185.556 21.0576 185.854 21.4779 185.968 21.6478C186.021 21.5673 186.275 21.2007 186.713 20.5658C187.161 19.931 187.722 19.1352 188.396 18.1695C189.071 17.2127 189.843 16.1129 190.702 14.8879C191.561 13.6539 192.446 12.411 193.366 11.1324C194.278 9.86265 195.172 8.60188 196.049 7.35899C196.925 6.1161 197.723 4.98945 198.459 3.9701C199.196 2.95075 199.809 2.09235 200.309 1.38596C200.808 0.679566 201.124 0.223541 201.264 0.026825V32.3062H195.821V16.5331C195.821 16.3096 195.847 16.0682 195.9 15.8089C195.952 15.5495 195.979 15.3975 195.979 15.3439L185.96 30.0529C185.819 29.883 185.486 29.4181 184.943 28.658C184.399 27.898 183.76 26.9949 183.006 25.9487C182.261 24.9025 181.472 23.7759 180.639 22.5777C179.806 21.3795 179.026 20.2618 178.29 19.2246C177.554 18.1963 176.931 17.32 176.423 16.5957C175.906 15.8714 175.625 15.4601 175.573 15.3439C175.573 15.3975 175.599 15.5585 175.66 15.8089C175.713 16.0592 175.739 16.3006 175.739 16.5331V32.3062H170.629V0.0447083H170.646Z" fill="#1A1A1A"/>
<path d="M209.373 16.9176C209.373 14.7716 209.785 12.7329 210.6 10.8105C211.415 8.88801 212.529 7.20698 213.922 5.76737C215.316 4.32776 216.955 3.18323 218.822 2.33377C220.689 1.48431 222.697 1.06406 224.827 1.06406C226.957 1.06406 228.929 1.48431 230.813 2.33377C232.698 3.18323 234.346 4.32776 235.757 5.76737C237.168 7.20698 238.282 8.88801 239.105 10.8105C239.921 12.7329 240.333 14.7716 240.333 16.9176C240.333 19.0636 239.921 21.1381 239.105 23.0427C238.29 24.9472 237.177 26.6193 235.757 28.05C234.346 29.4807 232.698 30.5984 230.813 31.421C228.929 32.2436 226.939 32.6549 224.827 32.6549C222.714 32.6549 220.689 32.2436 218.822 31.421C216.955 30.5984 215.316 29.4807 213.922 28.05C212.52 26.6193 211.415 24.9562 210.6 23.0427C209.785 21.1381 209.373 19.0904 209.373 16.9176ZM214.483 16.9176C214.483 18.4198 214.755 19.8237 215.298 21.1381C215.842 22.4525 216.587 23.597 217.542 24.5717C218.498 25.5463 219.602 26.3153 220.865 26.8786C222.127 27.442 223.485 27.7281 224.958 27.7281C226.431 27.7281 227.71 27.442 228.973 26.8786C230.235 26.3153 231.331 25.5463 232.26 24.5717C233.189 23.597 233.925 22.4525 234.46 21.1381C235.003 19.8237 235.266 18.4198 235.266 16.9176C235.266 15.4154 234.986 14.0116 234.433 12.6972C233.881 11.3827 233.127 10.2293 232.19 9.24568C231.243 8.25315 230.147 7.47523 228.885 6.9119C227.623 6.34858 226.273 6.06244 224.835 6.06244C223.398 6.06244 222.039 6.34858 220.786 6.9119C219.523 7.47523 218.428 8.25315 217.499 9.24568C216.569 10.2382 215.833 11.3827 215.298 12.6972C214.755 14.0116 214.483 15.4154 214.483 16.9176Z" fill="#1A1A1A"/>
<path d="M265.981 1.40384V6.35752H258.495V32.3062H253.385V6.35752H246.074V1.40384H265.981Z" fill="#1A1A1A"/>
<path d="M274.334 32.3062V1.40384H294.451V6.10715H279.409V14.414H292.794V19.2424H279.409V27.4688H295.038V32.2973H274.343L274.334 32.3062Z" fill="#1A1A1A"/>
<path d="M325.454 30.0171C325.121 30.2407 324.656 30.5089 324.06 30.8219C323.464 31.1349 322.754 31.421 321.939 31.6892C321.124 31.9575 320.195 32.181 319.178 32.3688C318.152 32.5566 317.056 32.646 315.891 32.646C313.506 32.646 311.376 32.2347 309.492 31.3942C307.607 30.5626 306.012 29.4359 304.715 28.0232C303.409 26.6104 302.418 24.9562 301.726 23.0605C301.033 21.1649 300.691 19.1709 300.691 17.0786C300.691 14.7627 301.103 12.6167 301.936 10.6585C302.769 8.69129 303.9 7.00132 305.32 5.57065C306.748 4.13999 308.405 3.03122 310.307 2.24436C312.209 1.45749 314.234 1.05511 316.399 1.05511C317.232 1.05511 318.065 1.11771 318.915 1.24289C319.756 1.36807 320.554 1.52902 321.308 1.73468C322.053 1.9314 322.71 2.15494 323.28 2.41425C323.85 2.67356 324.253 2.9418 324.507 3.219C324.262 3.61243 324.06 3.94327 323.929 4.19364C323.788 4.444 323.648 4.71225 323.49 4.9805C323.341 5.24875 323.175 5.55277 322.991 5.89255C322.807 6.23234 322.552 6.6973 322.219 7.28745C321.886 7.06391 321.483 6.86719 321.01 6.6973C320.536 6.52741 320.046 6.39329 319.537 6.29493C319.029 6.19657 318.503 6.11609 317.977 6.06244C317.451 6.00879 316.978 5.97303 316.566 5.97303C315.014 5.97303 313.577 6.2681 312.262 6.86719C310.947 7.45734 309.807 8.24421 308.852 9.21885C307.897 10.1935 307.152 11.3291 306.608 12.6346C306.065 13.9311 305.802 15.2813 305.802 16.6583C305.802 18.0353 306.056 19.3408 306.573 20.6195C307.081 21.9071 307.809 23.0427 308.729 24.0352C309.658 25.0277 310.754 25.8235 312.034 26.4315C313.305 27.0396 314.725 27.3436 316.276 27.3436C317.162 27.3436 318.021 27.2542 318.853 27.0664C319.686 26.8786 320.422 26.6819 321.054 26.4494C321.693 26.2259 322.211 26.0023 322.614 25.7699C323.017 25.5463 323.227 25.3854 323.254 25.3049L325.454 30.0082V30.0171Z" fill="#1A1A1A"/>
<path d="M350.969 32.3062C350.89 32.1095 350.741 31.7608 350.53 31.2511C350.32 30.7414 350.066 30.1244 349.759 29.3823C349.452 28.6491 349.119 27.8354 348.76 26.9412C348.4 26.0471 348.024 25.1261 347.638 24.1604H337.207L333.885 32.2973H328.854C328.967 32.0469 329.23 31.412 329.642 30.4106C330.054 29.4091 330.58 28.1662 331.203 26.6819C331.825 25.1976 332.517 23.5434 333.28 21.7193C334.043 19.8952 334.823 18.0353 335.629 16.1486C336.436 14.253 337.216 12.3931 337.978 10.569C338.741 8.74494 339.433 7.09074 340.056 5.60642C340.678 4.12211 341.195 2.87921 341.616 1.87775C342.028 0.876282 342.291 0.241425 342.405 -0.00894165C342.519 0.250366 342.782 0.876282 343.211 1.87775C343.641 2.87921 344.167 4.12211 344.789 5.60642C345.411 7.09074 346.104 8.74494 346.867 10.569C347.629 12.3931 348.409 14.253 349.216 16.1486C350.022 18.0443 350.802 19.9041 351.565 21.7193C352.327 23.5434 353.02 25.1976 353.642 26.6819C354.265 28.1662 354.782 29.4091 355.202 30.4106C355.614 31.412 355.877 32.0469 355.991 32.2973H350.96L350.969 32.3062ZM338.96 19.7968H345.858L342.869 12.42C342.869 12.42 342.773 12.2054 342.659 11.8477C342.545 11.499 342.466 11.1771 342.414 10.8909C342.361 11.1771 342.273 11.49 342.168 11.8477C342.054 12.2054 342.002 12.3931 342.002 12.42L338.969 19.7968H338.96Z" fill="#1A1A1A"/>
<path d="M87.4611 52.5054C87.4611 55.4562 85.6379 57.477 82.8767 57.477C81.334 57.477 80.1682 56.8421 79.4582 55.6976V61.0089H77.3633V47.5339H79.4582V49.2417C80.1682 48.0882 81.334 47.4623 82.8417 47.4623C85.5853 47.4623 87.4611 49.501 87.4611 52.5144V52.5054ZM85.3486 52.4339C85.3486 50.5919 84.1302 49.2417 82.4034 49.2417C80.6766 49.2417 79.4582 50.583 79.4582 52.4339C79.4582 54.2848 80.6766 55.6618 82.4034 55.6618C84.1302 55.6618 85.3486 54.3206 85.3486 52.4339Z" fill="#29A8DA"/>
<path d="M93.0012 49.4921C93.6586 48.1508 94.8244 47.4534 96.3496 47.4534V49.4921C94.4037 49.3848 93.1677 50.5472 93.0012 52.2372V57.3965H90.9062V47.5249H93.0012V49.4921Z" fill="#29A8DA"/>
<path d="M108.524 52.4607C108.524 55.4293 106.464 57.477 103.483 57.477C100.503 57.477 98.4258 55.4383 98.4258 52.4607C98.4258 49.4831 100.486 47.4534 103.483 47.4534C106.481 47.4534 108.524 49.4742 108.524 52.4607ZM100.521 52.4786C100.521 54.3921 101.739 55.6886 103.483 55.6886C105.228 55.6886 106.429 54.3921 106.429 52.4786C106.429 50.5651 105.21 49.2864 103.483 49.2864C101.757 49.2864 100.521 50.583 100.521 52.4786Z" fill="#29A8DA"/>
<path d="M128.141 51.2625V57.4054H126.046V51.8527C126.046 50.3505 125.169 49.4384 123.749 49.4384C122.093 49.4921 121.094 50.7976 121.094 52.5233V57.4054H118.999V51.8527C118.999 50.3505 118.14 49.4384 116.72 49.4384C115.045 49.4921 114.029 50.7976 114.029 52.5233V57.4054H111.951V47.5339H114.029V49.4474C114.704 48.0525 115.939 47.4623 117.544 47.4623C119.27 47.4623 120.454 48.3386 120.909 49.8408C121.532 48.1866 122.82 47.4623 124.582 47.4623C126.8 47.4623 128.132 48.9109 128.132 51.2715L128.141 51.2625Z" fill="#29A8DA"/>
<path d="M141.395 52.4607C141.395 55.4293 139.335 57.477 136.355 57.477C133.374 57.477 131.297 55.4383 131.297 52.4607C131.297 49.4831 133.357 47.4534 136.355 47.4534C139.352 47.4534 141.395 49.4742 141.395 52.4607ZM133.392 52.4786C133.392 54.3921 134.61 55.6886 136.355 55.6886C138.099 55.6886 139.3 54.3921 139.3 52.4786C139.3 50.5651 138.081 49.2864 136.355 49.2864C134.628 49.2864 133.392 50.583 133.392 52.4786Z" fill="#29A8DA"/>
<path d="M150.31 56.7706C149.547 57.2356 148.741 57.4949 147.926 57.4949C146.47 57.4949 145.217 56.6365 145.217 54.6157V49.4921H143.85V47.8915H145.217V45.1822H147.294V47.8915H150.152V49.4921H147.294V54.2222C147.294 55.2416 147.68 55.5545 148.329 55.5545C148.767 55.5545 149.223 55.4025 149.784 55.1253L150.31 56.7617V56.7706Z" fill="#29A8DA"/>
<path d="M155.753 44.7083C155.753 45.4505 155.227 45.987 154.535 45.987C153.842 45.987 153.316 45.4505 153.316 44.7083C153.316 43.9661 153.842 43.4118 154.535 43.4118C155.227 43.4118 155.753 43.9483 155.753 44.7083ZM153.5 57.4054V47.5339H155.578V57.4054H153.5Z" fill="#29A8DA"/>
<path d="M169.111 52.4607C169.111 55.4293 167.052 57.477 164.071 57.477C161.091 57.477 159.014 55.4383 159.014 52.4607C159.014 49.4831 161.074 47.4534 164.071 47.4534C167.069 47.4534 169.111 49.4742 169.111 52.4607ZM161.109 52.4786C161.109 54.3921 162.327 55.6886 164.071 55.6886C165.816 55.6886 167.017 54.3921 167.017 52.4786C167.017 50.5651 165.798 49.2864 164.071 49.2864C162.345 49.2864 161.109 50.583 161.109 52.4786Z" fill="#29A8DA"/>
<path d="M181.812 51.2625V57.4054H179.717V51.8527C179.717 50.3684 178.84 49.4563 177.385 49.4563C175.781 49.4742 174.782 50.6098 174.642 52.1478V57.4054H172.547V47.5339H174.642V49.4295C175.334 48.0525 176.57 47.4623 178.209 47.4623C180.462 47.4623 181.812 48.9109 181.812 51.2715V51.2625Z" fill="#29A8DA"/>
<path d="M191.682 56.1983C190.99 57.0746 189.886 57.4949 188.483 57.4949C186.388 57.4949 185.082 56.1804 185.082 54.4368C185.082 52.6932 186.414 51.4861 188.737 51.4682H191.665V51.1731C191.665 49.9302 190.885 49.1881 189.351 49.1881C188.422 49.1881 187.457 49.5189 186.493 50.1895L185.634 48.7052C186.984 47.8915 187.966 47.4623 189.798 47.4623C192.287 47.4623 193.69 48.7589 193.707 50.9317L193.725 57.4144H191.665V56.2073L191.682 56.1983ZM191.665 53.9361V53.024H189.044C187.677 53.024 187.045 53.3996 187.045 54.3474C187.045 55.2416 187.755 55.8138 188.921 55.8138C190.411 55.8138 191.56 55.018 191.665 53.9361Z" fill="#29A8DA"/>
<path d="M197.889 57.4054V43.6353H199.984V57.4054H197.889Z" fill="#29A8DA"/>
<path d="M220.565 52.5054C220.565 55.4562 218.741 57.477 215.98 57.477C214.438 57.477 213.272 56.8421 212.562 55.6976V61.0089H210.467V47.5339H212.562V49.2417C213.272 48.0882 214.438 47.4623 215.945 47.4623C218.689 47.4623 220.565 49.501 220.565 52.5144V52.5054ZM218.452 52.4339C218.452 50.5919 217.234 49.2417 215.507 49.2417C213.78 49.2417 212.562 50.583 212.562 52.4339C212.562 54.2848 213.78 55.6618 215.507 55.6618C217.234 55.6618 218.452 54.3206 218.452 52.4339Z" fill="#29A8DA"/>
<path d="M226.095 49.4921C226.752 48.1508 227.918 47.4534 229.443 47.4534V49.4921C227.497 49.3848 226.261 50.5472 226.095 52.2372V57.3965H224V47.5249H226.095V49.4921Z" fill="#29A8DA"/>
<path d="M241.619 52.4607C241.619 55.4293 239.568 57.477 236.579 57.477C233.59 57.477 231.521 55.4383 231.521 52.4607C231.521 49.4831 233.573 47.4534 236.579 47.4534C239.586 47.4534 241.619 49.4742 241.619 52.4607ZM233.616 52.4786C233.616 54.3921 234.835 55.6886 236.579 55.6886C238.323 55.6886 239.524 54.3921 239.524 52.4786C239.524 50.5651 238.306 49.2864 236.579 49.2864C234.852 49.2864 233.616 50.583 233.616 52.4786Z" fill="#29A8DA"/>
<path d="M254.285 57.4054H252.19V55.7155C251.498 56.869 250.332 57.4949 248.789 57.4949C246.002 57.4949 244.152 55.4383 244.152 52.4249C244.152 49.4116 246.028 47.4355 248.754 47.4355C250.314 47.4355 251.48 48.0882 252.19 49.2328V43.6264H254.285V57.3965V57.4054ZM252.19 52.5054C252.19 50.5919 250.972 49.2596 249.228 49.2596C247.483 49.2596 246.265 50.6187 246.247 52.5054C246.265 54.3832 247.466 55.7155 249.228 55.7155C250.989 55.7155 252.19 54.3832 252.19 52.5054Z" fill="#29A8DA"/>
<path d="M267.521 57.4055H265.426V55.4741C264.769 56.8511 263.551 57.4591 261.964 57.477C259.746 57.477 258.414 56.0284 258.414 53.6678V47.5249H260.509V53.0777C260.509 54.562 261.368 55.4741 262.77 55.4741C264.445 55.4383 265.426 54.1239 265.426 52.3892V47.5249H267.521V57.3965V57.4055Z" fill="#29A8DA"/>
<path d="M279.844 49.0718L278.696 50.4488C278.021 49.7424 277.092 49.3132 275.926 49.3311C274.252 49.3311 273.051 50.6098 273.051 52.4875C273.051 54.3653 274.252 55.6439 275.926 55.6439C277.144 55.6439 278.126 55.2326 278.784 54.4547L279.949 55.6439C279.073 56.8153 277.67 57.477 275.838 57.477C272.963 57.477 270.965 55.4562 270.965 52.4786C270.965 49.501 272.963 47.4534 275.838 47.4534C277.583 47.4534 278.95 48.0257 279.844 49.0718Z" fill="#29A8DA"/>
<path d="M288.864 56.7706C288.102 57.2356 287.304 57.4949 286.48 57.4949C285.025 57.4949 283.772 56.6365 283.772 54.6157V49.4921H282.404V47.8915H283.772V45.1822H285.849V47.8915H288.707V49.4921H285.849V54.2222C285.849 55.2416 286.235 55.5545 286.883 55.5545C287.322 55.5545 287.778 55.4025 288.339 55.1253L288.864 56.7617V56.7706Z" fill="#29A8DA"/>
<path d="M298.411 46.9348C298.411 44.5742 300.12 43.5369 301.742 43.5369C302.399 43.5369 303.03 43.6889 303.547 43.984L303.477 45.8439C302.916 45.5846 302.311 45.4147 301.803 45.4147C301.058 45.4147 300.497 45.7634 300.497 46.7291V47.8826H303.03V49.4831H300.497V57.4054H298.419V49.4831H297.148V47.8826H298.419V46.9348H298.411ZM304.073 44.7083C304.073 43.9483 304.599 43.4118 305.292 43.4118C305.984 43.4118 306.51 43.9483 306.51 44.7083C306.51 45.4683 305.984 45.987 305.292 45.987C304.599 45.987 304.073 45.4505 304.073 44.7083ZM306.326 47.5339V57.4054H304.248V47.5339H306.326Z" fill="#29A8DA"/>
<path d="M319.939 51.2625V57.4054H317.844V51.8527C317.844 50.3684 316.967 49.4563 315.512 49.4563C313.908 49.4742 312.909 50.6098 312.769 52.1478V57.4054H310.674V47.5339H312.769V49.4295C313.461 48.0525 314.697 47.4623 316.336 47.4623C318.589 47.4623 319.939 48.9109 319.939 51.2715V51.2625Z" fill="#29A8DA"/>
<path d="M333.219 57.4054H331.124V55.7155C330.431 56.869 329.266 57.4949 327.723 57.4949C324.935 57.4949 323.086 55.4383 323.086 52.4249C323.086 49.4116 324.962 47.4355 327.688 47.4355C329.257 47.4355 330.414 48.0882 331.124 49.2328V43.6264H333.219V57.3965V57.4054ZM331.124 52.5054C331.124 50.5919 329.905 49.2596 328.161 49.2596C326.417 49.2596 325.198 50.6187 325.181 52.5054C325.198 54.3832 326.399 55.7155 328.161 55.7155C329.923 55.7155 331.124 54.3832 331.124 52.5054Z" fill="#29A8DA"/>
<path d="M346.183 53.2833H338.863C339.188 54.8034 340.336 55.7512 341.861 55.7512C342.913 55.7512 343.877 55.3399 344.587 54.5978L345.7 55.8049C344.754 56.86 343.369 57.477 341.695 57.477C338.714 57.477 336.742 55.4562 336.742 52.4786C336.742 49.501 338.758 47.4713 341.633 47.4534C345.034 47.4534 346.419 49.7156 346.165 53.2833H346.183ZM344.359 51.7186C344.289 50.1269 343.246 49.1612 341.668 49.1612C340.091 49.1612 339.065 50.1448 338.828 51.7186H344.359Z" fill="#29A8DA"/>
<path d="M351.712 49.4921C352.37 48.1508 353.535 47.4534 355.061 47.4534V49.4921C353.115 49.3848 351.879 50.5472 351.712 52.2372V57.3965H349.617V47.5249H351.712V49.4921Z" fill="#29A8DA"/>
<path d="M0 1.56479V57.4859H54.8191V1.56479H0ZM47.6052 32.4225H30.2496V50.1269H24.5608V32.4225H7.2052V26.6193H24.5608V8.91483H30.2496V26.6193H47.6052V32.4225Z" fill="#29A8DA"/>
</g>
<defs>
<clipPath id="clip0_295_1895">
<rect width="356" height="61" fill="white"/>
</clipPath>
</defs>
</svg>
